<?xml version="1.0" encoding="utf-8" ?><svg xmlns="http://www.w3.org/2000/svg" xmlns:xlink="http://www.w3.org/1999/xlink" width="512" height="512" viewBox="0 0 512 512"><defs><linearGradient id="gradient_0" gradientUnits="userSpaceOnUse" x1="230.97015" y1="293.41617" x2="278.28195" y2="553.35699"><stop offset="0" stop-color="#0C0F83"/><stop offset="1" stop-color="#4F46F0"/></linearGradient></defs><path fill="url(#gradient_0)" d="M0 0L92.9811 0L185.5 0L441.214 0L512 0L512 63.8865L512 154.709L512 181.35L512 197.542L512 274.034L512 298.332L512 336.7L512 362.758L512 365.983L512 402.702L512 424.494L512 462.791L512 471.863L512 477.457L512 512L440.959 512L412.061 512L198.918 512L144.179 512L53.206 512L34.9496 512L0 512L0 475.574L0 445.429L0 366.423L0 318.663L0 289.851L0 263.482L0 203L0 159.388L0 145.996L0 124.847L0 112.15L0 89.6089L0 0Z"/><path fill="#24279F" d="M109.704 183.936C116.781 184.92 119.384 184.78 126.503 184.413C127.429 184.582 130.654 185.43 131.18 185.324L131.843 185.387C135.183 185.723 138.377 185.271 141.715 184.94C144.013 184.992 147.566 184.545 150.161 184.495C147.083 185.753 140.701 185.304 137.242 185.893C135.611 186.171 133.143 186.941 131.705 186.739L131.316 187.033L131.522 187.327C132.015 187.403 132.508 187.484 132.999 187.57L133.171 187.837C132.445 188.063 131.889 188.223 131.153 188.403C130.787 191.404 128.783 192.923 126.667 194.864C123.122 197.035 121.671 198.276 119.538 201.899L119.167 202.434C117.851 202.477 116.535 202.505 115.219 202.518C114.521 202.541 114.2 202.397 113.541 202.197L113.232 201.551L112.626 201.856C111.752 201.749 111.457 201.273 110.828 200.624C112.257 196.624 111.406 191.895 110.933 187.793C109.968 187.063 109.031 186.491 108.011 185.847L108.507 184.835L109.704 183.936Z"/><path fill="#050035" d="M109.704 183.936C116.781 184.92 119.384 184.78 126.503 184.413C127.429 184.582 130.654 185.43 131.18 185.324L131.843 185.387C135.183 185.723 138.377 185.271 141.715 184.94C144.013 184.992 147.566 184.545 150.161 184.495C147.083 185.753 140.701 185.304 137.242 185.893C135.611 186.171 133.143 186.941 131.705 186.739L131.316 187.033L131.522 187.327C132.015 187.403 132.508 187.484 132.999 187.57L133.171 187.837C132.445 188.063 131.889 188.223 131.153 188.403C122.139 191.226 121.58 189.763 113.176 188.756C112.205 188.101 112.091 188.102 110.933 187.793C109.968 187.063 109.031 186.491 108.011 185.847L108.507 184.835L109.704 183.936Z"/><path fill="#433CD8" d="M110.933 187.793C112.091 188.102 112.205 188.101 113.176 188.756C113.558 192.035 120.118 197.646 118.708 201.695L119.538 201.899L119.167 202.434C117.851 202.477 116.535 202.505 115.219 202.518C114.521 202.541 114.2 202.397 113.541 202.197L113.232 201.551L112.626 201.856C111.752 201.749 111.457 201.273 110.828 200.624C112.257 196.624 111.406 191.895 110.933 187.793Z"/><path fill="#181A86" d="M113.232 201.551C115.127 201.702 116.818 201.915 118.708 201.695L119.538 201.899L119.167 202.434C117.851 202.477 116.535 202.505 115.219 202.518C114.521 202.541 114.2 202.397 113.541 202.197L113.232 201.551Z"/><path fill="#6F5FF3" d="M0 0L92.9811 0L185.5 0L441.214 0L512 0L512 63.8865L512 154.709L512 181.35L512 197.542L512 274.034C490.201 254.35 471.313 244.276 443.363 236.109C437.522 234.338 431.419 233.109 425.466 231.724L425.23 231.723C422.012 231.69 417.041 230.96 413.76 230.614C408.155 230.02 402.527 229.661 396.892 229.538C390.995 229.446 384.826 230.052 378.955 230.582C372.608 231.155 366.252 232.762 359.965 233.613C356.061 234.802 348.63 236.784 345.151 238.344C343.52 239.085 340.848 240.168 339.36 240.943C338.794 241.295 338.488 241.543 337.828 241.676C336.788 240.011 335.54 235.406 334.788 233.365C333.642 230.254 332.823 228.642 331.031 225.847C330.135 225.322 323.596 218.031 322.364 216.762C320.542 214.884 318.62 213.106 316.606 211.435C314.97 206.112 306.283 204.375 304.448 200.681C301.231 198.879 296.397 196.268 292.997 195.24C292.684 193.416 292.346 191.674 292.232 189.825C292.149 189.379 292.16 189.519 292.135 189.14L292.065 188.103C291.98 186.752 292.021 186.652 291.219 185.513C288.471 181.388 262.915 165.502 257.874 163.432C256.245 163.079 254.216 162.397 252.65 162.595C252.5 162.704 250.852 163.392 250.579 163.509C246.94 162.885 245.494 161.562 242.527 159.511C241.031 159.556 238.471 159.793 237.249 159.079C233.973 160.469 231.798 163.066 228.938 164.775C219.232 170.574 208.709 174.84 198.154 178.825C183.158 184.486 166.91 187.646 150.941 188.766C147.214 189.024 143.529 188.07 139.916 188.214C136.954 187.445 136.172 187.174 133.171 187.837L132.999 187.57C132.508 187.484 132.015 187.403 131.522 187.327L131.316 187.033L131.705 186.739C133.143 186.941 135.611 186.171 137.242 185.893C140.701 185.304 147.083 185.753 150.161 184.495C147.566 184.545 144.013 184.992 141.715 184.94C138.377 185.271 135.183 185.723 131.843 185.387L131.18 185.324C130.654 185.43 127.429 184.582 126.503 184.413C119.384 184.78 116.781 184.92 109.704 183.936L108.507 184.835L108.011 185.847C106.529 185.212 105.416 185.679 103.976 186.286C102.294 185.909 100.619 185.504 98.9503 185.071C96.0044 183.942 93.3727 182.991 90.5014 181.689C87.4187 180.292 80.953 176.185 78.0335 175.629C75.0792 173.579 71.4414 171.129 68.9985 168.543C60.3229 159.355 62.2327 142.891 59.6355 131.573C58.54 132.704 40.6648 135.585 37.6959 136.208C34.9354 136.788 32.1153 137.358 29.2444 138.527C27.9094 136.486 24.6411 133.454 22.9002 131.584C18.1597 126.492 13.243 121.831 8.21447 117.053C6.32175 116.654 3.42531 112.209 0 112.15L0 89.6089L0 0Z"/><path fill="#0B1260" d="M59.6355 131.573C58.2641 125.341 55.8833 110.603 57.285 104.62C59.4251 95.4851 70.8721 85.1889 78.7974 80.4872C117.463 57.549 171.511 51.4577 215.163 60.2745C225.659 62.3943 238.075 67.8019 243.83 77.0105C243.335 77.5738 243.012 77.7229 243.176 78.6199C243.668 81.3147 244.001 82.8471 244.037 85.5807C244.114 84.7609 244.171 82.5352 244.565 82.0424C247.18 84.5169 244.183 90.8823 243.835 93.9422C244.744 94.7871 245.463 101.192 245.911 102.929C248.077 111.332 249.973 119.625 250.771 128.282C250.963 130.369 251.79 132.693 252.075 134.789C252.262 135.211 252.452 135.694 252.683 136.085C253.21 134.663 253.722 131.624 254.732 131.052C253.643 141.646 247.75 150.571 239.62 157.25C238.844 157.877 238.053 158.487 237.249 159.079C233.973 160.469 231.798 163.066 228.938 164.775C219.232 170.574 208.709 174.84 198.154 178.825C183.158 184.486 166.91 187.646 150.941 188.766C147.214 189.024 143.529 188.07 139.916 188.214C136.954 187.445 136.172 187.174 133.171 187.837L132.999 187.57C132.508 187.484 132.015 187.403 131.522 187.327L131.316 187.033L131.705 186.739C133.143 186.941 135.611 186.171 137.242 185.893C140.701 185.304 147.083 185.753 150.161 184.495C147.566 184.545 144.013 184.992 141.715 184.94C138.377 185.271 135.183 185.723 131.843 185.387L131.18 185.324C130.654 185.43 127.429 184.582 126.503 184.413C119.384 184.78 116.781 184.92 109.704 183.936L108.507 184.835L108.011 185.847C106.529 185.212 105.416 185.679 103.976 186.286C102.294 185.909 100.619 185.504 98.9503 185.071C96.0044 183.942 93.3727 182.991 90.5014 181.689C87.4187 180.292 80.953 176.185 78.0335 175.629C75.0792 173.579 71.4414 171.129 68.9985 168.543C60.3229 159.355 62.2327 142.891 59.6355 131.573Z"/><defs><linearGradient id="gradient_1" gradientUnits="userSpaceOnUse" x1="228.44165" y1="168.34285" x2="162.04985" y2="114.26894"><stop offset="0" stop-color="#030661"/><stop offset="1" stop-color="#19268A"/></linearGradient></defs><path fill="url(#gradient_1)" d="M244.037 85.5807C244.114 84.7609 244.171 82.5352 244.565 82.0424C247.18 84.5169 244.183 90.8823 243.835 93.9422C244.744 94.7871 245.463 101.192 245.911 102.929C248.077 111.332 249.973 119.625 250.771 128.282C250.963 130.369 251.79 132.693 252.075 134.789C252.262 135.211 252.452 135.694 252.683 136.085C253.21 134.663 253.722 131.624 254.732 131.052C253.643 141.646 247.75 150.571 239.62 157.25C238.844 157.877 238.053 158.487 237.249 159.079C233.973 160.469 231.798 163.066 228.938 164.775C219.232 170.574 208.709 174.84 198.154 178.825C183.158 184.486 166.91 187.646 150.941 188.766C147.214 189.024 143.529 188.07 139.916 188.214C136.954 187.445 136.172 187.174 133.171 187.837L132.999 187.57C132.508 187.484 132.015 187.403 131.522 187.327L131.316 187.033L131.705 186.739C133.143 186.941 135.611 186.171 137.242 185.893C140.701 185.304 147.083 185.753 150.161 184.495C147.566 184.545 144.013 184.992 141.715 184.94C141.856 180.356 140.193 175.804 137.737 171.991C139.463 169.499 139.072 157.084 139.384 153.174C139.675 149.524 141.256 142.424 141.125 139.216C147.869 138.431 154.604 137.574 161.328 136.644C161.104 134.197 160.202 132.91 159.034 130.802C160.332 130.473 161.848 130.239 163.178 130.043C167.365 129.428 171.374 128.5 175.474 127.469C181.758 125.3 187.343 124.666 194.018 122.058C195.546 120.753 198.454 119.422 200.288 118.585C202.198 120.132 202.837 118.963 204.794 120.472C219.358 114.673 242.727 103.316 244.037 85.5807Z"/><path fill="#00002C" d="M252.683 136.085C253.21 134.663 253.722 131.624 254.732 131.052C253.643 141.646 247.75 150.571 239.62 157.25C238.844 157.877 238.053 158.487 237.249 159.079C233.973 160.469 231.798 163.066 228.938 164.775C219.232 170.574 208.709 174.84 198.154 178.825C183.158 184.486 166.91 187.646 150.941 188.766C147.214 189.024 143.529 188.07 139.916 188.214C136.954 187.445 136.172 187.174 133.171 187.837L132.999 187.57C132.508 187.484 132.015 187.403 131.522 187.327L131.316 187.033L131.705 186.739C133.143 186.941 135.611 186.171 137.242 185.893C140.701 185.304 147.083 185.753 150.161 184.495C153.519 184.032 157.04 183.802 160.522 183.327C167.583 182.322 174.591 180.973 181.52 179.285C187.349 177.863 193.069 176.027 198.637 173.791C202.127 172.393 205.663 170.739 209.148 169.417L221.426 164.678C223.056 164.043 227.689 162.339 228.863 161.578C234.949 157.637 246.185 148.686 249.805 142.731C251.071 140.448 252.055 138.621 252.683 136.085Z"/><path fill="#7777F6" d="M244.037 85.5807C244.114 84.7609 244.171 82.5352 244.565 82.0424C247.18 84.5169 244.183 90.8823 243.835 93.9422C233.989 113.021 205.081 124.521 185.767 130.967C178.466 133.403 169.049 135.738 161.371 136.633C161.357 136.637 161.343 136.641 161.328 136.644C161.104 134.197 160.202 132.91 159.034 130.802C160.332 130.473 161.848 130.239 163.178 130.043C167.365 129.428 171.374 128.5 175.474 127.469C181.758 125.3 187.343 124.666 194.018 122.058C195.546 120.753 198.454 119.422 200.288 118.585C202.198 120.132 202.837 118.963 204.794 120.472C219.358 114.673 242.727 103.316 244.037 85.5807Z"/><path fill="#24279F" d="M200.288 118.585C202.198 120.132 202.837 118.963 204.794 120.472C203.292 121.404 197.261 124.465 195.703 124.523C195.131 123.181 195.37 122.811 194.018 122.058C195.546 120.753 198.454 119.422 200.288 118.585Z"/><path fill="#0B1260" d="M252.075 134.789C252.262 135.211 252.452 135.694 252.683 136.085C252.055 138.621 251.071 140.448 249.805 142.731L249.403 142.618C248.811 140.575 251.843 138.127 252.075 134.789Z"/><path fill="#0B1260" d="M83.7341 110.316C83.5915 110.197 83.3668 110.019 83.237 109.88C81.1849 107.69 79.684 104.892 79.6201 101.888C79.5265 97.4885 83.4249 91.5493 86.536 88.6518C105.427 71.0575 148.853 63.405 173.312 63.4114C173.283 65.1304 173.293 65.8293 173.522 67.5334C175.731 67.6137 177.628 67.4697 179.788 67.4734C182.019 67.5793 184.393 67.9266 186.409 68.0138L186.735 68.2374C190.57 70.8441 195.168 72.2863 199.553 73.638C202.813 74.6428 204.314 76.4121 205.88 79.3057C209.395 85.2861 208.13 90.7118 204.328 96.0619C201.028 100.705 197.34 103.829 192.185 106.281C190.657 107.007 189.674 107.892 188.365 108.627C183.763 110.207 179.122 111.759 174.488 113.245C172.022 114.036 169.357 114.567 166.922 115.346C164.491 115.911 161.193 116.506 158.693 116.844C157.169 117.344 156.72 117.467 155.113 117.712C152.474 117.876 148.969 118.393 146.476 118.282C143.798 118.453 140.137 118.778 137.53 118.778C135.923 118.966 128.981 119.504 127.515 119.424C124.241 120.61 121.808 120.536 118.397 120.505C116.44 120.487 112.985 120.272 111.971 122.278C108.446 121.473 104.958 120.796 101.419 119.953C94.4463 117.904 88.7539 115.877 83.7341 110.316Z"/><defs><linearGradient id="gradient_2" gradientUnits="userSpaceOnUse" x1="81.351112" y1="106.67708" x2="173.60361" y2="65.932732"><stop offset="0" stop-color="#171A77"/><stop offset="1" stop-color="#3B48C8"/></linearGradient></defs><path fill="url(#gradient_2)" d="M83.7341 110.316C83.5915 110.197 83.3668 110.019 83.237 109.88C81.1849 107.69 79.684 104.892 79.6201 101.888C79.5265 97.4885 83.4249 91.5493 86.536 88.6518C105.427 71.0575 148.853 63.405 173.312 63.4114C173.283 65.1304 173.293 65.8293 173.522 67.5334C150.733 67.3849 119.606 71.7807 101.95 87.7922C96.178 93.0264 94.6857 103.221 100.673 108.829C103.332 111.32 105.747 112.232 108.923 113.904C106.852 115.521 101.213 114.372 98.8189 116.499C98.7425 116.543 98.6662 116.586 98.5899 116.629C94.5125 114.835 90.8263 112.828 86.8593 110.839C85.5656 110.191 84.9917 109.851 83.7341 110.316Z"/><path fill="#24279F" d="M83.7341 110.316C84.9917 109.851 85.5656 110.191 86.8593 110.839C90.8263 112.828 94.5125 114.835 98.5899 116.629C98.6662 116.586 98.7425 116.543 98.8189 116.499C101.213 114.372 106.852 115.521 108.923 113.904C116.359 115.375 123.757 115.861 131.291 116.208C131.963 116.239 132.754 116.4 133.287 116.821C134.576 119.334 135.054 118.608 137.53 118.778C135.923 118.966 128.981 119.504 127.515 119.424C124.241 120.61 121.808 120.536 118.397 120.505C116.44 120.487 112.985 120.272 111.971 122.278C108.446 121.473 104.958 120.796 101.419 119.953C94.4463 117.904 88.7539 115.877 83.7341 110.316Z"/><defs><linearGradient id="gradient_3" gradientUnits="userSpaceOnUse" x1="103.95058" y1="108.46642" x2="105.35873" y2="122.10812"><stop offset="0" stop-color="#494BE9"/><stop offset="1" stop-color="#7860FF"/></linearGradient></defs><path fill="url(#gradient_3)" d="M83.7341 110.316C84.9917 109.851 85.5656 110.191 86.8593 110.839C90.8263 112.828 94.5125 114.835 98.5899 116.629C110.511 121.163 118.504 116.214 127.515 119.424C124.241 120.61 121.808 120.536 118.397 120.505C116.44 120.487 112.985 120.272 111.971 122.278C108.446 121.473 104.958 120.796 101.419 119.953C94.4463 117.904 88.7539 115.877 83.7341 110.316Z"/><path fill="#24279F" d="M146.476 118.282C150.13 115.723 154.571 115.371 158.693 116.844C157.169 117.344 156.72 117.467 155.113 117.712C152.474 117.876 148.969 118.393 146.476 118.282Z"/><defs><linearGradient id="gradient_4" gradientUnits="userSpaceOnUse" x1="152.26115" y1="87.939972" x2="154.72275" y2="111.23875"><stop offset="0" stop-color="#141985"/><stop offset="1" stop-color="#575CC9"/></linearGradient></defs><path fill="url(#gradient_4)" d="M202.996 82.0632C206.065 82.6277 205.296 87.757 204.252 89.7374C198.528 100.597 184.428 104.723 173.454 107.926C157.958 112.448 141.358 113.562 125.317 112.156C119.423 111.639 112.965 110.218 107.629 107.771C104.448 106.116 102.984 105.255 100.422 102.847C110.585 97.2655 123.325 92.9937 134.853 92.0727C150.244 90.8431 165.662 89.5177 181.041 88.076C187.058 87.512 198.205 87.2007 203.429 84.6238C203.8 83.9094 203.3 83.0517 202.996 82.0632Z"/><defs><linearGradient id="gradient_5" gradientUnits="userSpaceOnUse" x1="157.12569" y1="128.93275" x2="148.73244" y2="62.951874"><stop offset="0" stop-color="#010029"/><stop offset="1" stop-color="#01014B"/></linearGradient></defs><path fill="url(#gradient_5)" d="M104.96 74.1239C110.425 71.1929 119.85 68.6133 125.844 67.1654C144.692 62.6123 177.211 57.6933 196.29 61.7071L196.66 61.8817C199.114 63.0157 204.797 63.9255 207.506 64.6646C239.292 73.3366 234.776 102.076 208.045 114.243C206.861 114.781 201.447 117.678 200.288 118.585C198.454 119.422 195.546 120.753 194.018 122.058C187.343 124.666 181.758 125.3 175.474 127.469C172.944 123.673 170.087 127.707 168.31 120.807L168.098 120.74C167.466 120.082 166.342 119.365 165.562 118.814C164.215 118.712 162.349 118.723 160.96 118.689C158.955 118.944 158.017 117.587 155.113 117.712C156.72 117.467 157.169 117.344 158.693 116.844C161.193 116.506 164.491 115.911 166.922 115.346C169.357 114.567 172.022 114.036 174.488 113.245C179.122 111.759 183.763 110.207 188.365 108.627C189.674 107.892 190.657 107.007 192.185 106.281C197.34 103.829 201.028 100.705 204.328 96.0619C208.13 90.7118 209.395 85.2861 205.88 79.3057C204.314 76.4121 202.813 74.6428 199.553 73.638C195.168 72.2863 190.57 70.8441 186.735 68.2374L186.409 68.0138C184.393 67.9266 182.019 67.5793 179.788 67.4734C177.628 67.4697 175.731 67.6137 173.522 67.5334C173.293 65.8293 173.283 65.1304 173.312 63.4114C148.853 63.405 105.427 71.0575 86.536 88.6518C83.4249 91.5493 79.5265 97.4885 79.6201 101.888C79.684 104.892 81.1849 107.69 83.237 109.88C83.3668 110.019 83.5915 110.197 83.7341 110.316C88.7539 115.877 94.4463 117.904 101.419 119.953C101.331 123.963 100.643 124.411 96.6532 125.655L94.0805 124.946C91.8993 123.802 89.7832 123.065 87.5633 121.759C86.8548 120.752 81.3857 117.004 79.9397 114.973C77.2666 111.219 75.8873 107.305 76.3719 102.735C77.5123 91.1478 87.3496 84.3179 96.6195 79.0066C98.8701 77.7171 103.101 75.737 104.96 74.1239Z"/><path fill="#24279F" d="M186.409 68.0138C188.846 67.7747 191.163 67.9944 193.561 68.0426C202.192 68.216 209.807 70.3958 216.516 76.0164C221.446 80.146 222.586 83.4084 221.91 89.7403C216.785 100.687 206.408 105.25 195.137 107.793C192.909 108.296 190.662 108.855 188.365 108.627C189.674 107.892 190.657 107.007 192.185 106.281C197.34 103.829 201.028 100.705 204.328 96.0619C208.13 90.7118 209.395 85.2861 205.88 79.3057C204.314 76.4121 202.813 74.6428 199.553 73.638C195.168 72.2863 190.57 70.8441 186.735 68.2374L186.409 68.0138Z"/><path fill="#433CD8" d="M188.365 108.627C190.662 108.855 192.909 108.296 195.137 107.793C206.408 105.25 216.785 100.687 221.91 89.7403C222.739 90.4965 222.885 90.6136 223.506 91.525C216.991 106.698 183.789 118.57 168.31 120.807L168.098 120.74C167.466 120.082 166.342 119.365 165.562 118.814C164.215 118.712 162.349 118.723 160.96 118.689C158.955 118.944 158.017 117.587 155.113 117.712C156.72 117.467 157.169 117.344 158.693 116.844C161.193 116.506 164.491 115.911 166.922 115.346C169.357 114.567 172.022 114.036 174.488 113.245C179.122 111.759 183.763 110.207 188.365 108.627Z"/><path fill="#7777F6" d="M166.922 115.346C168.963 117.173 172.727 115.945 175.432 116.073C173.298 116.665 168.404 117.976 166.249 118.219L165.562 118.814C164.215 118.712 162.349 118.723 160.96 118.689C158.955 118.944 158.017 117.587 155.113 117.712C156.72 117.467 157.169 117.344 158.693 116.844C161.193 116.506 164.491 115.911 166.922 115.346Z"/><path fill="#433CD8" d="M160.96 118.689C162.179 118.099 164.802 118.232 166.249 118.219L165.562 118.814C164.215 118.712 162.349 118.723 160.96 118.689Z"/><defs><linearGradient id="gradient_6" gradientUnits="userSpaceOnUse" x1="181.14406" y1="83.214317" x2="219.17065" y2="69.713905"><stop offset="0" stop-color="#344BC1"/><stop offset="1" stop-color="#6C5AFA"/></linearGradient></defs><path fill="url(#gradient_6)" d="M173.312 63.4114L173.991 63.4722C185.353 63.2386 197.993 64.9573 208.64 68.6949C216.386 71.4142 224.658 76.8555 224.765 85.7834C224.787 87.6376 224.359 89.8448 223.506 91.525C222.885 90.6136 222.739 90.4965 221.91 89.7403C222.586 83.4084 221.446 80.146 216.516 76.0164C209.807 70.3958 202.192 68.216 193.561 68.0426C191.163 67.9944 188.846 67.7747 186.409 68.0138C184.393 67.9266 182.019 67.5793 179.788 67.4734C177.628 67.4697 175.731 67.6137 173.522 67.5334C173.293 65.8293 173.283 65.1304 173.312 63.4114Z"/><path fill="#181A86" d="M173.312 63.4114L173.991 63.4722C174.352 65.2552 174.575 65.4174 176.058 66.4365C176.429 66.6965 176.803 66.9537 177.178 67.2081C178.256 67.2361 178.76 67.2019 179.788 67.4734C177.628 67.4697 175.731 67.6137 173.522 67.5334C173.293 65.8293 173.283 65.1304 173.312 63.4114Z"/><defs><linearGradient id="gradient_7" gradientUnits="userSpaceOnUse" x1="137.00642" y1="117.90597" x2="135.21375" y2="132.99126"><stop offset="0" stop-color="#02065F"/><stop offset="1" stop-color="#141397"/></linearGradient></defs><path fill="url(#gradient_7)" d="M146.476 118.282C148.969 118.393 152.474 117.876 155.113 117.712C158.017 117.587 158.955 118.944 160.96 118.689C162.349 118.723 164.215 118.712 165.562 118.814C166.342 119.365 167.466 120.082 168.098 120.74L168.31 120.807C170.087 127.707 172.944 123.673 175.474 127.469C171.374 128.5 167.365 129.428 163.178 130.043C161.848 130.239 160.332 130.473 159.034 130.802C160.202 132.91 161.104 134.197 161.328 136.644C154.604 137.574 147.869 138.431 141.125 139.216C137.106 139.468 121.887 140.535 118.836 139.578L119.079 139.19C119.008 138.169 119.015 137.831 119.129 136.813L118.683 136.45L118.941 136.156C118.099 135.781 115.714 135.86 114.445 135.302C111.424 134.789 107.953 134.429 104.9 134.132L104.97 133.615C103.709 133.081 102.909 131.951 102.037 130.916C103.681 130.287 104.719 129.918 106.459 129.64C105.848 129.389 105.413 128.884 104.641 128.619C102.27 127.803 98.961 126.331 96.6532 125.655C100.643 124.411 101.331 123.963 101.419 119.953C104.958 120.796 108.446 121.473 111.971 122.278C112.985 120.272 116.44 120.487 118.397 120.505C121.808 120.536 124.241 120.61 127.515 119.424C128.981 119.504 135.923 118.966 137.53 118.778C140.137 118.778 143.798 118.453 146.476 118.282Z"/><path fill="#BFC3F5" d="M106.459 129.64C119.205 132.199 146.48 133.84 159.034 130.802C160.202 132.91 161.104 134.197 161.328 136.644C154.604 137.574 147.869 138.431 141.125 139.216C137.106 139.468 121.887 140.535 118.836 139.578L119.079 139.19C119.008 138.169 119.015 137.831 119.129 136.813L118.683 136.45L118.941 136.156C118.099 135.781 115.714 135.86 114.445 135.302C111.424 134.789 107.953 134.429 104.9 134.132L104.97 133.615C103.709 133.081 102.909 131.951 102.037 130.916C103.681 130.287 104.719 129.918 106.459 129.64Z"/><path fill="#E8E9F5" d="M118.941 136.156C120.775 136.155 129.915 135.89 131.004 136.758C130.013 137.466 120.598 137.096 119.129 136.813L118.683 136.45L118.941 136.156Z"/><path fill="#6F5FF3" d="M104.97 133.615C107.009 133.334 112.926 133.996 114.383 135.056L114.445 135.302C111.424 134.789 107.953 134.429 104.9 134.132L104.97 133.615Z"/><defs><linearGradient id="gradient_8" gradientUnits="userSpaceOnUse" x1="161.32266" y1="109.63673" x2="118.22627" y2="132.20671"><stop offset="0" stop-color="#8194FF"/><stop offset="1" stop-color="#C3BFFF"/></linearGradient></defs><path fill="url(#gradient_8)" d="M146.476 118.282C148.969 118.393 152.474 117.876 155.113 117.712C158.017 117.587 158.955 118.944 160.96 118.689C162.349 118.723 164.215 118.712 165.562 118.814C166.342 119.365 167.466 120.082 168.098 120.74C164.826 121.572 160.496 122.15 157.144 122.692C142.068 125.133 126.991 125.519 111.971 122.278C112.985 120.272 116.44 120.487 118.397 120.505C121.808 120.536 124.241 120.61 127.515 119.424C128.981 119.504 135.923 118.966 137.53 118.778C140.137 118.778 143.798 118.453 146.476 118.282Z"/><path fill="#24279F" d="M118.836 139.578C121.887 140.535 137.106 139.468 141.125 139.216C141.256 142.424 139.675 149.524 139.384 153.174C139.072 157.084 139.463 169.499 137.737 171.991C140.193 175.804 141.856 180.356 141.715 184.94C138.377 185.271 135.183 185.723 131.843 185.387L131.18 185.324C130.654 185.43 127.429 184.582 126.503 184.413C126.325 183.993 123.862 171.594 123.896 171.35C124.451 171.055 124.681 171.067 125.296 170.992L125.514 170.966C125.942 170.228 125.475 168.873 125.119 168.109C121.166 159.632 116.702 148.826 115.595 139.371L118.836 139.578Z"/><defs><linearGradient id="gradient_9" gradientUnits="userSpaceOnUse" x1="141.66037" y1="183.29263" x2="128.70312" y2="174.355"><stop offset="0" stop-color="#7E90F4"/><stop offset="1" stop-color="#9BB3FF"/></linearGradient></defs><path fill="url(#gradient_9)" d="M131.18 185.324C130.255 182.864 131.055 182.308 130.846 179.973C130.527 176.401 127.465 170.582 133.452 170.025C135.236 169.859 136.453 170.92 137.737 171.991C140.193 175.804 141.856 180.356 141.715 184.94C138.377 185.271 135.183 185.723 131.843 185.387L131.18 185.324Z"/><path fill="#E8E9F5" d="M94.0805 124.946L96.6532 125.655C98.961 126.331 102.27 127.803 104.641 128.619C105.413 128.884 105.848 129.389 106.459 129.64C104.719 129.918 103.681 130.287 102.037 130.916C102.909 131.951 103.709 133.081 104.97 133.615L104.9 134.132C107.953 134.429 111.424 134.789 114.445 135.302C115.714 135.86 118.099 135.781 118.941 136.156L118.683 136.45L119.129 136.813C119.015 137.831 119.008 138.169 119.079 139.19L118.836 139.578L115.595 139.371C103.769 137.787 97.3462 136.388 86.2517 132.484C86.0982 131.944 86.0593 131.747 85.981 131.19L86.6835 130.657L88.3061 131.167C88.5937 130.915 88.9945 130.028 89.2639 129.633C90.9499 127.162 91.6229 126.517 94.0805 124.946Z"/><path fill="#433CD8" d="M94.0805 124.946L96.6532 125.655C98.961 126.331 102.27 127.803 104.641 128.619C105.413 128.884 105.848 129.389 106.459 129.64C104.719 129.918 103.681 130.287 102.037 130.916C102.909 131.951 103.709 133.081 104.97 133.615L104.9 134.132C100.408 133.846 92.7301 132.328 88.3061 131.167C88.5937 130.915 88.9945 130.028 89.2639 129.633C90.9499 127.162 91.6229 126.517 94.0805 124.946Z"/><defs><linearGradient id="gradient_10" gradientUnits="userSpaceOnUse" x1="149.46921" y1="73.451752" x2="149.53288" y2="59.337738"><stop offset="0" stop-color="#434376"/><stop offset="1" stop-color="#6362B1"/></linearGradient></defs><path fill="url(#gradient_10)" d="M104.96 74.1239C103.672 72.9658 102.531 73.4031 102.081 72.4699C103.645 71.6107 114.819 68.0169 116.833 67.4013C139.455 60.4853 162.609 58.4845 186.149 59.3416C188.506 59.4274 195.595 59.7201 197.313 60.638L197.403 61.0734C196.875 61.5702 197.019 61.414 196.29 61.7071C177.211 57.6933 144.692 62.6123 125.844 67.1654C119.85 68.6133 110.425 71.1929 104.96 74.1239Z"/><path fill="#24279F" d="M87.5633 121.759C89.7832 123.065 91.8993 123.802 94.0805 124.946C91.6229 126.517 90.9499 127.162 89.2639 129.633C88.9945 130.028 88.5937 130.915 88.3061 131.167L86.6835 130.657C85.0276 130.041 83.3057 129.285 81.6671 128.598C82.5913 126.194 85.5801 123.962 87.394 121.949L87.5633 121.759Z"/><path fill="#433CD8" d="M109.74 177.014C110.624 178.278 110.996 179.028 111.678 180.379C111.053 181.699 110.605 182.766 109.704 183.936L108.507 184.835C106.66 184.776 102.539 182.935 104.065 180.49C105.391 178.366 107.574 177.742 109.74 177.014Z"/><path fill="#BFC3F5" d="M70.037 123.057C74.0032 125.275 77.5008 126.775 81.6671 128.598C83.3057 129.285 85.0276 130.041 86.6835 130.657L85.981 131.19C86.0593 131.747 86.0982 131.944 86.2517 132.484C80.1829 130.458 74.4626 127.509 69.292 123.741L70.037 123.057Z"/><path fill="#6F5FF3" d="M62.6244 117.335C65.3472 118.647 67.9223 120.918 70.037 123.057L69.292 123.741C66.5604 122.496 64.155 119.899 62.6244 117.335Z"/><defs><linearGradient id="gradient_11" gradientUnits="userSpaceOnUse" x1="425.72879" y1="189.59642" x2="404.68021" y2="100.55646"><stop offset="0" stop-color="#CCCFF3"/><stop offset="1" stop-color="#E9EBF3"/></linearGradient></defs><path fill="url(#gradient_11)" d="M457.585 102.571C473.759 106.088 494.368 114.114 503.838 128.314C514.596 144.446 501.984 159.237 488.189 167.835C465.498 181.978 438.963 188.418 412.583 191.094C406.218 191.725 396.387 192.516 389.946 191.838C389.679 191.706 388.862 191.61 388.518 191.555C388.479 186.614 388.297 183.54 389.62 178.754C368.976 177.169 347.235 175.019 330.172 162.079C319.596 154.059 319.659 139.049 328.361 129.789C334.311 123.456 342.753 117.684 350.927 114.523C366.137 108.641 382.858 105.194 399.111 104.04C411.283 103.651 423.431 105.594 435.617 105.041C440.4 104.825 454.684 106.024 457.585 102.571Z"/><path fill="#E8E9F5" d="M443.623 120.707C445.021 120.881 446.83 121.669 448.161 122.369C450.737 123.568 457.468 128.865 457.818 131.974C459.533 147.203 434.087 152.935 425.702 155.044C420.22 156.214 417.259 156.909 411.571 156.736C413.047 155.868 415.338 154.892 416.401 153.601C417.735 152.051 418.141 148.968 419.334 147.463C422.697 143.221 425.708 138.737 428.967 134.428C430.678 132.167 432.945 130.067 434.707 127.898C437.77 124.129 439.227 122.778 443.623 120.707Z"/><path fill="#E8E9F5" d="M371.408 159.005C372.402 158.976 373.839 159.368 374.85 159.595C377.524 160.194 379.871 160.848 382.586 161.219C386 161.685 393.009 161.792 396.049 163.017C401.122 165.061 402.116 167.002 407.88 167.793C416.881 169.028 420.966 169.242 429.865 166.848C431.925 166.294 437.034 165.238 439.1 165.162L439.484 165.15C431.168 168.185 420.452 169.165 411.607 170.445C406.112 171.487 400.814 173.568 395.331 174.449C389.731 175.349 368.129 173.965 363.686 172.098C363.234 171.908 363.093 171.337 362.905 170.91C362.229 169.372 347.216 165.705 345.406 163.049C345.204 162.752 345.276 162.802 345.35 162.425C346.885 161.043 354.261 161.888 356.76 161.922C358.399 161.952 360.038 161.869 361.665 161.671C364.942 161.263 368.326 160.186 371.408 159.005Z"/><path fill="#E8E9F5" d="M452.267 112.025C453.681 112.156 458.24 113.209 458.384 114.825C457.019 114.793 451.849 113.957 452.267 112.025Z"/><defs><linearGradient id="gradient_12" gradientUnits="userSpaceOnUse" x1="67.338181" y1="28.792164" x2="103.82947" y2="70.072594"><stop offset="0" stop-color="#3132BB"/><stop offset="1" stop-color="#4E50F9"/></linearGradient></defs><path fill="url(#gradient_12)" d="M0 0L92.9811 0L185.5 0C183.782 1.25163 174.604 4.69792 172.534 5.16304C165.217 6.80665 158.082 7.02355 152.207 12.4218C146.76 17.1832 141.16 22.3299 135.615 27.0226C131.409 30.282 126.649 34.2266 122.278 37.2041C118.742 39.6126 114.32 41.6588 110.61 43.9778C107.939 42.9445 108.176 43.2055 105.575 44.253C106.894 40.9593 108.06 37.4912 106.597 34.0053C104.814 29.7583 98.6053 28.5848 94.808 30.4686C90.9341 32.3903 88.7927 37.4788 91.1777 41.3486C92.603 43.6614 94.6571 45.5162 95.6488 48.0439C91.4621 53.0789 79.577 57.5837 73.318 60.2277C69.2709 61.9373 62.6789 60.1658 59.3736 64.4534C56.0614 68.2211 55.4886 73.1848 52.6413 77.2125C49.8349 81.1823 45.381 84.9631 43.5771 89.5098L43.7135 90.1682L42.9814 90.8389L42.7096 90.9292C37.9233 92.4686 24.6396 93.5596 21.6414 96.1519C19.2699 98.2023 17.68 101.457 16.0476 104.092C13.7238 107.842 11.0224 111.408 8.98972 115.326C8.69529 115.893 8.42289 116.448 8.21447 117.053C6.32175 116.654 3.42531 112.209 0 112.15L0 89.6089L0 0Z"/><defs><linearGradient id="gradient_13" gradientUnits="userSpaceOnUse" x1="6.7031546" y1="-4.4916692" x2="51.313202" y2="46.173584"><stop offset="0" stop-color="#100F71"/><stop offset="1" stop-color="#3232BD"/></linearGradient></defs><path fill="url(#gradient_13)" d="M0 0L92.9811 0L92.9322 0.553784C94.4853 0.772351 99.8065 0.508896 100.248 1.02665C98.4681 4.72611 78.1301 20.6306 74.1134 25.1587C73.2258 26.1594 71.4085 27.7555 70.584 28.9842C70.4027 29.2544 70.4129 29.9999 70.4011 30.3302C70.8298 31.1915 71.0173 31.1983 70.6996 32.205C69.5116 35.9689 63.406 35.5487 60.359 35.2169C59.3382 35.9847 59.7778 35.8057 59.2157 36.6858C55.4674 42.5543 49.4829 46.467 44.3189 51.0228C36.2183 58.1455 28.1403 65.2928 20.0891 72.4657C19.1476 73.3045 14.6704 76.6225 14.3594 77.0938C12.5008 79.9104 0.743711 87.8609 0.516494 90.2526L0.769934 90.6198L0.760028 90.4172L0.40005 90.6561C0.449595 90.2118 0.365564 89.8855 0 89.6089L0 0Z"/><path fill="#6F5FF3" d="M60.359 35.2169C58.2652 34.9174 56.2959 34.5643 54.28 34.0878C40.104 30.737 46.4142 24.8005 57.0651 25.1818C62.6721 25.3825 66.3489 26.1167 70.4011 30.3302C70.8298 31.1915 71.0173 31.1983 70.6996 32.205C69.5116 35.9689 63.406 35.5487 60.359 35.2169Z"/><path fill="#433CD8" d="M16.1468 49.3981C20.6261 48.9866 18.0086 50.2515 19.1426 51.3472C21.6484 53.7681 23.8613 54.954 26.1118 57.8505C26.151 65.5017 21.2102 70.4722 14.8608 74.2133C13.7459 74.8701 13.1244 74.7863 11.9439 74.3652C3.0487 71.4297 -2.42628 61.7412 4.32097 53.6189C7.46517 49.8338 11.6332 49.6033 16.1468 49.3981Z"/><path fill="#E8E9F5" d="M13.2967 57.4897C18.5874 57.6318 18.1644 61.0589 14.968 64.0073C10.045 64.0562 8.71219 60.1674 13.2967 57.4897Z"/><path fill="#E8E9F5" d="M14.1462 17.6629C15.4397 18.0388 15.8982 18.1869 16.2468 19.4994C15.9079 21.2077 15.0169 21.8722 13.7817 23.0592C10.0782 21.5217 11.3685 19.294 14.1462 17.6629Z"/><path fill="#BFC3F5" d="M57.145 58.5649C59.6241 59.6794 59.6013 61.5527 58.0648 63.5196C54.85 62.1848 55.6846 60.9629 57.145 58.5649Z"/><path fill="#E8E9F5" d="M302.123 158.558C300.907 153.438 299.764 148.876 301.012 143.715C303.445 133.654 312.853 124.266 321.524 119.151C350.998 101.765 387.663 97.2936 421.353 98.4405C432.84 98.8315 446.465 99.8105 457.585 102.571C454.684 106.024 440.4 104.825 435.617 105.041C423.431 105.594 411.283 103.651 399.111 104.04C382.858 105.194 366.137 108.641 350.927 114.523C342.753 117.684 334.311 123.456 328.361 129.789C319.659 139.049 319.596 154.059 330.172 162.079C347.235 175.019 368.976 177.169 389.62 178.754C388.297 183.54 388.479 186.614 388.518 191.555C357.739 191.487 326.695 187.065 305.557 162.465C304.773 161.552 302.452 159.43 302.123 158.558Z"/><defs><linearGradient id="gradient_14" gradientUnits="userSpaceOnUse" x1="350.15912" y1="173.55568" x2="331.06122" y2="212.73744"><stop offset="0" stop-color="#B7BBEF"/><stop offset="1" stop-color="#D6D8F1"/></linearGradient></defs><path fill="url(#gradient_14)" d="M302.123 158.558C302.452 159.43 304.773 161.552 305.557 162.465C326.695 187.065 357.739 191.487 388.518 191.555C388.862 191.61 389.679 191.706 389.946 191.838L389.248 191.966C388.908 192.472 386.597 208.45 386.171 210.307C385.66 212.562 384.859 214.74 383.787 216.788C383.383 217.601 383.55 217.334 382.412 217.746C377.802 217.666 368.324 218.52 363.815 219.136C357.933 219.938 353.824 221.304 347.476 221.45C340.831 217.374 337.595 211.492 331.596 206.625C323.789 200.291 313.662 196.95 304.552 192.638C304.158 189.443 303.819 186.242 303.535 183.036C303.512 180.32 303.284 177.927 302.917 175.246C302.701 169.733 302.004 164.131 302.123 158.558Z"/><defs><linearGradient id="gradient_15" gradientUnits="userSpaceOnUse" x1="512.14215" y1="2.2166536" x2="470.7471" y2="34.453594"><stop offset="0" stop-color="#302FCD"/><stop offset="1" stop-color="#5744EE"/></linearGradient></defs><path fill="url(#gradient_15)" d="M441.214 0L512 0L512 63.8865C511.718 62.7383 511.43 59.4913 511.12 57.8313C506.76 54.9734 502.39 52.2083 498.552 48.6586C495.047 45.4164 491.442 42.2341 488.165 38.7551C485.022 35.419 482.546 31.468 478.988 28.5282C472.468 23.1395 464.397 20.0438 457.966 14.5287C452.996 10.3636 449.371 5.37153 444.405 1.41615C443.797 0.9312 442.017 0.295202 441.214 0Z"/><path fill="#E8E9F5" d="M491.269 13.4398C494.518 13.4287 497.863 15.3743 494.815 18.7936C490.925 19.6964 488.995 17.1232 491.269 13.4398Z"/><defs><linearGradient id="gradient_16" gradientUnits="userSpaceOnUse" x1="475.77997" y1="209.7234" x2="496.65381" y2="276.71979"><stop offset="0" stop-color="#0E0E69"/><stop offset="1" stop-color="#312EE5"/></linearGradient></defs><path fill="url(#gradient_16)" d="M443.363 236.109C446.105 234.148 459.029 228.42 462.696 228.099C466.168 227.795 470.157 228.177 474.336 226.845C479.442 225.218 482.314 222.09 486.952 219.598C489.227 218.376 492.538 217.437 494.791 216.117C499.724 213.226 503.985 208.081 507.512 203.599C508.808 201.953 510.037 199.084 511.625 197.762C511.75 197.688 511.875 197.615 512 197.542L512 274.034C490.201 254.35 471.313 244.276 443.363 236.109Z"/><path fill="#0B1260" d="M510.294 183.447C510.541 181.991 510.756 182.008 512 181.35L512 197.542C511.875 197.615 511.75 197.688 511.625 197.762C510.037 199.084 508.808 201.953 507.512 203.599C503.985 208.081 499.724 213.226 494.791 216.117C492.538 217.437 489.227 218.376 486.952 219.598C482.314 222.09 479.442 225.218 474.336 226.845C470.157 228.177 466.168 227.795 462.696 228.099C459.029 228.42 446.105 234.148 443.363 236.109C437.522 234.338 431.419 233.109 425.466 231.724C426.597 230.841 441.84 229.088 444.716 228.376C469.102 222.345 504.478 211.31 510.294 183.447Z"/><path fill="#433CD8" d="M252.578 120.996C256.017 121.238 262.957 122.934 264.808 125.697C269.761 133.093 265.049 143.62 259.709 149.434C256.495 152.933 249.085 157.692 252.162 162.401L252.65 162.595C252.5 162.704 250.852 163.392 250.579 163.509C246.94 162.885 245.494 161.562 242.527 159.511C241.031 159.556 238.471 159.793 237.249 159.079C238.053 158.487 238.844 157.877 239.62 157.25C247.75 150.571 253.643 141.646 254.732 131.052C254.362 127.948 252.681 124.026 252.578 120.996Z"/><path fill="#0B1260" d="M331.031 225.847C331.928 225.815 332.011 225.762 332.888 226.036C335.792 225.948 357.536 232.072 359.965 233.613C356.061 234.802 348.63 236.784 345.151 238.344C343.52 239.085 340.848 240.168 339.36 240.943C338.794 241.295 338.488 241.543 337.828 241.676C336.788 240.011 335.54 235.406 334.788 233.365C333.642 230.254 332.823 228.642 331.031 225.847Z"/><path fill="#BFC3F5" d="M331.031 225.847C331.928 225.815 332.011 225.762 332.888 226.036C334.042 227.436 335.475 229.277 336.682 230.58C337.739 231.206 338.427 231.598 339.407 232.36C340.964 233.24 343.114 234.6 344.497 235.724C344.744 236.572 345.044 237.476 345.151 238.344C343.52 239.085 340.848 240.168 339.36 240.943C338.794 241.295 338.488 241.543 337.828 241.676C336.788 240.011 335.54 235.406 334.788 233.365C333.642 230.254 332.823 228.642 331.031 225.847Z"/><path fill="#6F5FF3" d="M339.407 232.36C340.964 233.24 343.114 234.6 344.497 235.724C344.744 236.572 345.044 237.476 345.151 238.344C343.52 239.085 340.848 240.168 339.36 240.943C339.229 239.22 338.404 236.763 337.863 235.096C338.977 233.951 338.841 234.013 339.407 232.36Z"/><path fill="#7777F6" d="M336.682 230.58C337.739 231.206 338.427 231.598 339.407 232.36C338.841 234.013 338.977 233.951 337.863 235.096C337.518 233.425 336.778 232.516 336.682 230.58Z"/><path fill="#24279F" d="M243.83 77.0105C249.023 84.3807 250.829 110.498 252.578 120.996C252.681 124.026 254.362 127.948 254.732 131.052C253.722 131.624 253.21 134.663 252.683 136.085C252.452 135.694 252.262 135.211 252.075 134.789C251.79 132.693 250.963 130.369 250.771 128.282C249.973 119.625 248.077 111.332 245.911 102.929C245.463 101.192 244.744 94.7871 243.835 93.9422C244.183 90.8823 247.18 84.5169 244.565 82.0424C244.171 82.5352 244.114 84.7609 244.037 85.5807C244.001 82.8471 243.668 81.3147 243.176 78.6199C243.012 77.7229 243.335 77.5738 243.83 77.0105Z"/><path fill="#24279F" d="M303.535 183.036C303.819 186.242 304.158 189.443 304.552 192.638C304.541 194.3 304.611 199.202 304.448 200.681C301.231 198.879 296.397 196.268 292.997 195.24C292.684 193.416 292.346 191.674 292.232 189.825C292.241 188.737 292.196 188.478 292.51 187.464C295 185.991 300.763 183.531 303.535 183.036Z"/><path fill="#433CD8" d="M512 154.709L512 181.35C510.756 182.008 510.541 181.991 510.294 183.447C509.274 175.063 508.318 162.406 512 154.709Z"/><path fill="#433CD8" d="M302.917 175.246C303.284 177.927 303.512 180.32 303.535 183.036C300.763 183.531 295 185.991 292.51 187.464C292.196 188.478 292.241 188.737 292.232 189.825C292.149 189.379 292.16 189.519 292.135 189.14L292.065 188.103C291.98 186.752 292.021 186.652 291.219 185.513C291.675 185.335 291.955 185.147 292.323 184.819C295.409 182.069 299.187 182.421 301.962 179.342C302.33 177.902 302.286 176.512 302.917 175.246Z"/><path fill="#433CD8" d="M66.0299 82.4311C60.9185 87.7741 50.1574 89.7196 42.9814 90.8389L43.7135 90.1682C49.082 89.2652 54.7595 88.3257 59.73 85.9926C61.9661 84.943 63.9149 83.577 66.0299 82.4311Z"/><path fill="#9A9DE7" d="M382.412 217.746C383.55 217.334 383.383 217.601 383.787 216.788C384.993 217.774 393.581 216.907 396.551 217.504C393.763 218.03 385.737 217.67 382.412 217.746Z"/><path fill="#E26FF8" d="M376.541 13.8084C385.154 13.0665 388.685 18.4646 392.895 24.6536C390.751 25.773 388.291 27.2703 386.082 28.4642L385.644 28.5675C383.049 28.0623 372.353 19.4225 369.952 17.4812C372.699 15.6955 373.4 14.9377 376.541 13.8084Z"/><path fill="#E8E9F5" d="M340.989 78.3237C336.396 84.0612 330.765 71.7874 329.534 68.2501C328.895 66.4131 333.365 65.3659 334.685 65.2572C338.114 64.9749 340.384 66.7537 342.893 68.7868L341.894 74.3631C341.674 76.0491 341.573 76.672 340.989 78.3237Z"/><path fill="#BFC3F5" d="M341.894 74.3631C341.674 76.0491 341.573 76.672 340.989 78.3237L337.45 76.1275C339.109 75.1763 339.992 74.5761 341.894 74.3631Z"/><path fill="#E8E9F5" d="M213.677 16.8396C214.668 16.6383 215.886 16.7237 216.792 17.2326C219.331 20.5847 212.821 25.2292 209.44 25.343C208.355 24.9977 207.319 24.5119 206.36 23.8979C204.96 22.9852 204.178 21.4442 205.419 19.9902C207.4 17.6673 210.833 17.2415 213.677 16.8396Z"/><path fill="#E26FF8" d="M438.478 71.4314C441.618 73.272 443.503 77.9364 440.09 80.6177C438.958 81.507 437.613 81.0901 436.299 80.8243C434.74 80.5041 433.855 80.5092 432.266 80.4607C433.95 76.5668 435.037 74.0255 438.478 71.4314Z"/><path fill="#E8E9F5" d="M96.9989 34.215C100.578 34.3281 101.143 35.6228 98.9084 38.389C96.4082 38.1186 94.3736 36.3955 96.9989 34.215Z"/><path fill="#0B1260" d="M0 112.15C3.42531 112.209 6.32175 116.654 8.21447 117.053C13.243 121.831 18.1597 126.492 22.9002 131.584C24.6411 133.454 27.9094 136.486 29.2444 138.527C32.1153 137.358 34.9354 136.788 37.6959 136.208C40.6648 135.585 58.54 132.704 59.6355 131.573C62.2327 142.891 60.3229 159.355 68.9985 168.543C71.4414 171.129 75.0792 173.579 78.0335 175.629C80.953 176.185 87.4187 180.292 90.5014 181.689C93.3727 182.991 96.0044 183.942 98.9503 185.071C100.619 185.504 102.294 185.909 103.976 186.286C105.416 185.679 106.529 185.212 108.011 185.847C109.031 186.491 109.968 187.063 110.933 187.793C111.406 191.895 112.257 196.624 110.828 200.624C111.457 201.273 111.752 201.749 112.626 201.856L113.232 201.551L113.541 202.197C114.2 202.397 114.521 202.541 115.219 202.518C116.535 202.505 117.851 202.477 119.167 202.434L119.538 201.899C121.671 198.276 123.122 197.035 126.667 194.864C128.783 192.923 130.787 191.404 131.153 188.403C131.889 188.223 132.445 188.063 133.171 187.837C136.172 187.174 136.954 187.445 139.916 188.214C143.529 188.07 147.214 189.024 150.941 188.766C166.91 187.646 183.158 184.486 198.154 178.825C208.709 174.84 219.232 170.574 228.938 164.775C231.798 163.066 233.973 160.469 237.249 159.079C238.471 159.793 241.031 159.556 242.527 159.511C245.494 161.562 246.94 162.885 250.579 163.509C250.852 163.392 252.5 162.704 252.65 162.595C254.216 162.397 256.245 163.079 257.874 163.432C262.915 165.502 288.471 181.388 291.219 185.513C292.021 186.652 291.98 186.752 292.065 188.103L292.135 189.14C292.16 189.519 292.149 189.379 292.232 189.825C292.346 191.674 292.684 193.416 292.997 195.24C296.397 196.268 301.231 198.879 304.448 200.681C306.283 204.375 314.97 206.112 316.606 211.435C318.62 213.106 320.542 214.884 322.364 216.762C323.596 218.031 330.135 225.322 331.031 225.847C332.823 228.642 333.642 230.254 334.788 233.365C335.54 235.406 336.788 240.011 337.828 241.676C332.524 244.351 328.768 247.069 324.161 250.754C318.62 255.705 311.958 261.155 308.865 267.978C307.065 271.947 305.666 276.437 303.285 280.101L302.18 281.422C301.733 283.481 297.842 292.599 296.692 294.477C290.949 308.906 284.516 322.53 287.869 338.489C288.814 342.988 290.413 350.051 292.881 353.913C296.136 360.453 299.936 366.708 304.239 372.612C296.887 375.028 285.713 368.411 278.635 367.716C269.787 366.847 260.499 367.703 251.593 367.228C248.142 367.044 244.124 366.127 240.758 366.006C235.33 365.812 229.767 366.114 224.321 365.681C219.412 365.289 214.366 364.201 209.441 364.147C206.061 364.11 202.282 365.286 198.867 365.167C194.485 365.204 188.127 362.992 183.89 363.891C178.354 365.065 170.725 367.72 165.677 370.136C158.941 373.36 152.937 377.328 145.749 379.617C140.81 381.19 136.009 382.488 130.984 383.718C98.5438 391.729 60.4564 393.224 29.9192 377.707C17.596 371.446 13.0461 365.767 8.84344 353.076C7.0663 344.048 5.05916 335.066 2.82398 326.14C2.26842 323.991 1.61028 321.324 0.800379 319.249C0.598947 318.733 0.592634 318.871 0 318.663L0 289.851L0 263.482L0 203L0 159.388L0 145.996L0 124.847L0 112.15Z"/><defs><linearGradient id="gradient_17" gradientUnits="userSpaceOnUse" x1="226.45926" y1="196.21512" x2="243.06535" y2="300.32391"><stop offset="0" stop-color="#010022"/><stop offset="1" stop-color="#010142"/></linearGradient></defs><path fill="url(#gradient_17)" d="M174.939 203.924C178.613 199.397 187.039 198.893 192.387 197.587C200.658 195.567 208.217 192.377 216.874 192.109C219.339 192.032 221.898 192.769 224.296 192.759C228.411 192.743 232.582 192.199 236.716 192.269C247.617 192.034 258.656 193.925 269.515 193.291C270.112 193.256 270.298 192.719 270.499 192.286C271.747 192.511 276.711 193.491 277.678 193.5C278.37 193.41 278.787 192.999 279.365 192.578C283.123 193.485 289.182 194.777 292.997 195.24C296.397 196.268 301.231 198.879 304.448 200.681C306.283 204.375 314.97 206.112 316.606 211.435C318.62 213.106 320.542 214.884 322.364 216.762C323.596 218.031 330.135 225.322 331.031 225.847C332.823 228.642 333.642 230.254 334.788 233.365C335.54 235.406 336.788 240.011 337.828 241.676C332.524 244.351 328.768 247.069 324.161 250.754C318.62 255.705 311.958 261.155 308.865 267.978C307.065 271.947 305.666 276.437 303.285 280.101L302.18 281.422C301.733 283.481 297.842 292.599 296.692 294.477L295.945 294.328C293.732 298.331 291.275 302.025 286.241 302.601C278.416 305.43 271.403 307.925 263.152 309.2C262.143 309.356 259.274 309.967 258.381 309.94C256.968 309.58 255.307 309.954 253.855 310.173L253.965 309.557C254.82 308.751 256.05 308.77 257.248 308.634L256.831 308.389C244.851 309.899 225.598 310.976 213.66 308.446C212.588 308.5 206.655 307.504 205.291 307.293C191.421 304.795 176.783 299.967 164.397 293.203C151.268 286.446 141.271 276.217 133.76 263.612C132.985 262.311 132.149 260.288 131.231 259.225L130.898 259.315C126.951 252.212 130.716 238.274 135.683 232.375C142.535 224.166 151.398 217.934 160.003 211.73C165.166 208.008 169.098 206.424 174.939 203.924Z"/><path fill="#433CD8" d="M174.939 203.924C180.018 203.575 183.779 201.441 188.739 200.371C193.461 199.283 198.415 198.713 203.144 197.752C207.383 196.802 211.191 195.397 215.613 195.526C220.454 195.668 225.419 194.635 230.253 194.545C233.792 194.479 237.604 194.829 241.133 195.191L241.276 196.182C239.897 197.08 237.274 195.789 236.066 196.665C228.634 196.761 220.382 196.961 212.968 198.018C192.653 201.055 171.146 208.53 156.156 223.095C140.759 238.056 141.617 261.213 157.355 275.504C159.939 277.851 164.334 280.706 166.448 282.838C165.311 286.171 164.509 287.958 164.437 291.491L164.397 293.203C151.268 286.446 141.271 276.217 133.76 263.612C132.985 262.311 132.149 260.288 131.231 259.225L130.898 259.315C126.951 252.212 130.716 238.274 135.683 232.375C142.535 224.166 151.398 217.934 160.003 211.73C165.166 208.008 169.098 206.424 174.939 203.924Z"/><path fill="#24279F" d="M174.939 203.924C178.613 199.397 187.039 198.893 192.387 197.587C200.658 195.567 208.217 192.377 216.874 192.109C219.339 192.032 221.898 192.769 224.296 192.759C228.411 192.743 232.582 192.199 236.716 192.269C247.617 192.034 258.656 193.925 269.515 193.291C270.112 193.256 270.298 192.719 270.499 192.286C271.747 192.511 276.711 193.491 277.678 193.5C278.37 193.41 278.787 192.999 279.365 192.578C283.123 193.485 289.182 194.777 292.997 195.24C296.397 196.268 301.231 198.879 304.448 200.681C306.283 204.375 314.97 206.112 316.606 211.435C318.62 213.106 320.542 214.884 322.364 216.762C323.596 218.031 330.135 225.322 331.031 225.847C332.823 228.642 333.642 230.254 334.788 233.365C335.54 235.406 336.788 240.011 337.828 241.676C332.524 244.351 328.768 247.069 324.161 250.754C322.415 248.627 323.568 242.126 323.867 239.421C322.959 237.292 317.514 227.211 316.069 225.302C303.961 209.302 280.736 201.766 261.619 198.605C256.391 197.74 249.458 197.868 244.863 196.911L244.49 196.83C244.328 196.231 244.316 196.314 243.991 195.758C243.09 195.161 242.246 195.251 241.133 195.191C237.604 194.829 233.792 194.479 230.253 194.545C225.419 194.635 220.454 195.668 215.613 195.526C211.191 195.397 207.383 196.802 203.144 197.752C198.415 198.713 193.461 199.283 188.739 200.371C183.779 201.441 180.018 203.575 174.939 203.924Z"/><path fill="#9A9DE7" d="M277.678 193.5C278.37 193.41 278.787 192.999 279.365 192.578C283.123 193.485 289.182 194.777 292.997 195.24C296.397 196.268 301.231 198.879 304.448 200.681C306.283 204.375 314.97 206.112 316.606 211.435C313.514 209.806 309.964 206.884 306.777 204.892C297.965 199.383 287.799 195.844 277.678 193.5Z"/><defs><linearGradient id="gradient_18" gradientUnits="userSpaceOnUse" x1="280.59991" y1="313.26422" x2="237.90205" y2="278.8494"><stop offset="0" stop-color="#2922B3"/><stop offset="1" stop-color="#5D74E7"/></linearGradient></defs><path fill="url(#gradient_18)" d="M302.18 281.422C301.733 283.481 297.842 292.599 296.692 294.477L295.945 294.328C293.732 298.331 291.275 302.025 286.241 302.601C278.416 305.43 271.403 307.925 263.152 309.2C262.143 309.356 259.274 309.967 258.381 309.94C256.968 309.58 255.307 309.954 253.855 310.173L253.965 309.557C254.82 308.751 256.05 308.77 257.248 308.634L256.831 308.389C244.851 309.899 225.598 310.976 213.66 308.446C212.588 308.5 206.655 307.504 205.291 307.293C207.472 303.767 210.745 303.875 213.597 299.171C215.982 299.387 218.994 299.577 221.314 299.953C222.673 300.005 224.141 300.23 225.531 300.312C249.38 301.713 274.409 297.26 295.331 285.412C297.245 284.329 300.224 282.022 302.18 281.422Z"/><path fill="#6F5FF3" d="M213.597 299.171C215.982 299.387 218.994 299.577 221.314 299.953L221.31 300.545C220.195 300.895 220.302 300.771 219.749 301.899C219.2 303.017 218.493 304.222 217.952 305.321C216.497 308.274 216.129 307.631 213.66 308.446C212.588 308.5 206.655 307.504 205.291 307.293C207.472 303.767 210.745 303.875 213.597 299.171Z"/><path fill="#7777F6" d="M256.831 308.389C257.194 308.235 263.521 307.131 263.857 307.135C268.208 307.191 283.351 300.845 286.241 302.601C278.416 305.43 271.403 307.925 263.152 309.2C262.143 309.356 259.274 309.967 258.381 309.94C256.968 309.58 255.307 309.954 253.855 310.173L253.965 309.557C254.82 308.751 256.05 308.77 257.248 308.634L256.831 308.389Z"/><path fill="#7777F6" d="M166.448 282.838C181.698 292.764 195.994 296.053 213.597 299.171C210.745 303.875 207.472 303.767 205.291 307.293C191.421 304.795 176.783 299.967 164.397 293.203L164.437 291.491C164.509 287.958 165.311 286.171 166.448 282.838Z"/><path fill="#181A86" d="M241.133 195.191C242.246 195.251 243.09 195.161 243.991 195.758C244.316 196.314 244.328 196.231 244.49 196.83C241.764 196.638 238.814 196.68 236.066 196.665C237.274 195.789 239.897 197.08 241.276 196.182L241.133 195.191Z"/><defs><linearGradient id="gradient_19" gradientUnits="userSpaceOnUse" x1="209.36406" y1="206.39194" x2="262.95233" y2="276.82394"><stop offset="0" stop-color="#1E287C"/><stop offset="1" stop-color="#353DAB"/></linearGradient></defs><path fill="url(#gradient_19)" d="M215.688 202.721C223.604 201.964 232.448 200.89 240.363 201.177C261.179 201.933 285.041 206.24 301.634 219.597C316.087 231.232 319.086 249.537 306.654 263.856C294.712 277.612 278.491 283.95 261.057 287.418C255.335 288.552 247.73 289.911 241.918 290.357C237.281 290.714 226.521 290.901 221.905 290.109C208.68 288.241 200.822 287.652 187.884 282.138L186.995 282.159C186.732 283.061 186.897 283.128 185.956 283.5C187.511 285.597 192.162 286.193 192.92 288.492L192.698 288.756C190.792 288.873 183.57 284.15 181.543 282.978C177.303 280.524 170.702 278.384 168.813 273.642C161.257 269.898 154.184 258.597 152.584 250.591C150.579 240.558 156.08 231.84 162.837 225.239C173.899 214.432 186.672 208.254 201.665 205.276C205.771 204.198 211.51 202.734 215.688 202.721Z"/><path fill="#433CD8" d="M215.688 202.721C223.604 201.964 232.448 200.89 240.363 201.177C261.179 201.933 285.041 206.24 301.634 219.597C316.087 231.232 319.086 249.537 306.654 263.856C294.712 277.612 278.491 283.95 261.057 287.418C255.335 288.552 247.73 289.911 241.918 290.357C237.281 290.714 226.521 290.901 221.905 290.109C208.68 288.241 200.822 287.652 187.884 282.138L186.995 282.159C186.732 283.061 186.897 283.128 185.956 283.5C187.511 285.597 192.162 286.193 192.92 288.492L192.698 288.756C190.792 288.873 183.57 284.15 181.543 282.978C177.303 280.524 170.702 278.384 168.813 273.642C169.752 273.019 170.68 272.211 171.718 272.297L172.111 272.836C174.015 273.686 175.904 274.569 177.779 275.484C181.636 274.628 183.22 273.84 185.822 270.931L184.654 269.81L184.854 269.7C185.676 269.995 186.404 270.723 187.248 271.273C187.964 270.683 188.622 270.148 188.659 269.221C188.244 268.905 188.027 268.753 187.579 268.503L187.194 268.289L187.308 267.881L195.285 272.278C206.713 276.413 213.047 278.479 225.485 279.037C230.353 278.902 235.454 279.405 240.307 279.359C256.178 279.212 277.374 274.052 288.891 262.75C293.046 258.673 297.962 251.764 297.974 245.777L297.803 244.622C297.51 242.569 296.738 240.923 296.212 238.984C294.182 231.498 289.754 226.794 283.526 222.41L279.649 219.866C276.93 217.692 268.747 214.142 265.281 212.771C263.161 211.933 259.985 211.135 258.002 210.042C257.014 209.679 253.867 209.066 252.485 208.69C244.152 204.381 229.156 205.582 219.784 204.611C218.121 204.439 216.706 204.078 215.688 202.721Z"/><path fill="#24279F" d="M258.002 210.042C260.81 208.144 265.102 211.315 267.409 210.435C267.678 210.431 268.149 210.275 268.435 210.199C275.539 214.011 281.809 212.931 288.39 219.164C291.157 221.785 295.752 222.187 296.666 228C298.309 234.04 298.271 239.617 297.974 245.777L297.803 244.622C297.51 242.569 296.738 240.923 296.212 238.984C294.182 231.498 289.754 226.794 283.526 222.41L279.649 219.866C276.93 217.692 268.747 214.142 265.281 212.771C263.161 211.933 259.985 211.135 258.002 210.042Z"/><path fill="#9A9DE7" d="M195.285 272.278C206.713 276.413 213.047 278.479 225.485 279.037C225.135 280.18 222.794 281.34 221.787 281.934C216.091 285.297 210.727 283.198 204.873 281.872C203.06 281.461 202.27 282.482 200.502 281.53C201.097 281.126 201.31 280.976 201.865 280.484C201.055 277.975 194.359 275.773 195.285 272.278Z"/><path fill="#9A9DE7" d="M184.664 277.964C189.509 279.12 193.035 280.603 197.626 282.038C204.304 284.127 213.988 286.42 220.93 286.537C221.494 286.73 221.81 286.728 222.147 287.11C221.98 288.289 221.864 288.912 221.905 290.109C208.68 288.241 200.822 287.652 187.884 282.138C187.046 280.563 185.898 279.248 184.664 277.964Z"/><path fill="#181A86" d="M168.813 273.642C169.752 273.019 170.68 272.211 171.718 272.297L172.111 272.836L171.857 273.61C173.482 275.833 180.718 278.605 182.984 280.589C184.465 281.252 185.433 281.703 186.995 282.159C186.732 283.061 186.897 283.128 185.956 283.5C187.511 285.597 192.162 286.193 192.92 288.492L192.698 288.756C190.792 288.873 183.57 284.15 181.543 282.978C177.303 280.524 170.702 278.384 168.813 273.642Z"/><path fill="#00002C" d="M182.984 280.589C184.465 281.252 185.433 281.703 186.995 282.159C186.732 283.061 186.897 283.128 185.956 283.5C184.978 282.906 183.538 282.101 182.857 281.241L182.984 280.589Z"/><path fill="#7777F6" d="M184.654 269.81L184.854 269.7C185.676 269.995 186.404 270.723 187.248 271.273C187.964 270.683 188.622 270.148 188.659 269.221C188.244 268.905 188.027 268.753 187.579 268.503L187.194 268.289L187.308 267.881L195.285 272.278C194.359 275.773 201.055 277.975 201.865 280.484C201.31 280.976 201.097 281.126 200.502 281.53C196.711 276.893 190.916 273.949 185.822 270.931L184.654 269.81Z"/><path fill="#7777F6" d="M220.93 286.537C222.7 286.404 224.472 286.286 226.244 286.184C224.514 287.035 224.038 287.381 222.147 287.11C221.81 286.728 221.494 286.73 220.93 286.537Z"/><path fill="#0B1260" d="M267.409 210.435C266.677 209.962 266.559 209.957 266.067 209.221L266.223 208.983C267.198 209.076 267.649 209.584 268.435 210.199C268.149 210.275 267.678 210.431 267.409 210.435Z"/><path fill="#0B1260" d="M201.665 205.276C205.771 204.198 211.51 202.734 215.688 202.721C216.706 204.078 218.121 204.439 219.784 204.611C229.156 205.582 244.152 204.381 252.485 208.69C253.867 209.066 257.014 209.679 258.002 210.042C259.985 211.135 263.161 211.933 265.281 212.771C268.747 214.142 276.93 217.692 279.649 219.866L279.248 220.661C263.382 212.117 252.385 211.419 234.624 212.14C223.311 212.6 212.571 213.823 201.663 217.119C194.174 219.274 179.683 225.43 177.11 233.69C175.972 235.626 174.841 237.96 174.414 240.176C174.267 240.894 174.243 240.997 174.238 241.725C174.316 248.597 175.873 253.011 180.94 257.87C194.283 270.663 214.508 275.989 232.649 275.712C235.163 275.674 239.513 275.383 241.781 275.523C242.595 275.53 244.491 275.564 245.249 275.488C258.798 274.141 278.536 267.957 287.946 257.879C291.94 253.601 295.4 245.897 294.843 240.141C293.969 231.114 289.015 228.325 283.209 223.243C283.443 222.867 283.402 222.852 283.526 222.41C289.754 226.794 294.182 231.498 296.212 238.984C296.738 240.923 297.51 242.569 297.803 244.622L297.974 245.777C297.962 251.764 293.046 258.673 288.891 262.75C277.374 274.052 256.178 279.212 240.307 279.359C235.454 279.405 230.353 278.902 225.485 279.037C213.047 278.479 206.713 276.413 195.285 272.278L187.308 267.881L187.194 268.289L187.579 268.503C188.027 268.753 188.244 268.905 188.659 269.221C188.622 270.148 187.964 270.683 187.248 271.273C186.404 270.723 185.676 269.995 184.854 269.7L184.654 269.81L185.822 270.931C183.22 273.84 181.636 274.628 177.779 275.484C175.904 274.569 174.015 273.686 172.111 272.836L171.718 272.297C170.68 272.211 169.752 273.019 168.813 273.642C161.257 269.898 154.184 258.597 152.584 250.591C150.579 240.558 156.08 231.84 162.837 225.239C173.899 214.432 186.672 208.254 201.665 205.276Z"/><path fill="#24279F" d="M201.665 205.276C205.771 204.198 211.51 202.734 215.688 202.721C216.706 204.078 218.121 204.439 219.784 204.611C229.156 205.582 244.152 204.381 252.485 208.69C252.427 208.712 252.369 208.732 252.311 208.755C250.199 209.588 222.095 207.867 217.709 207.742C214.239 207.643 206.014 207.038 202.903 206.091C202.355 205.924 202.051 205.688 201.665 205.276Z"/><path fill="#6F5FF3" d="M184.654 269.81C181.52 268 170.969 251.05 172.155 248.209C173.143 248.345 175.213 254.556 176.089 256.176C179.346 262.204 182.848 263.803 187.308 267.881L187.194 268.289L187.579 268.503C188.027 268.753 188.244 268.905 188.659 269.221C188.622 270.148 187.964 270.683 187.248 271.273C186.404 270.723 185.676 269.995 184.854 269.7L184.654 269.81Z"/><defs><linearGradient id="gradient_20" gradientUnits="userSpaceOnUse" x1="209.95697" y1="255.65848" x2="204.31178" y2="270.94598"><stop offset="0" stop-color="#5E5CD9"/><stop offset="1" stop-color="#999DFF"/></linearGradient></defs><path fill="url(#gradient_20)" d="M174.238 241.725C177.336 243.67 177.802 249.08 180.589 251.662C181.973 252.945 183.02 252.715 184.17 253.557C187.969 257.419 192.795 261.157 197.846 263.188C199.769 263.961 200.149 264.243 201.463 265.833C213.084 271.631 225.119 272.921 237.904 273.393C238.973 273.432 242.274 273.455 243.586 273.43C243.648 273.571 243.71 273.713 243.772 273.854C243.282 275.317 243.418 275.235 241.781 275.523C239.513 275.383 235.163 275.674 232.649 275.712C214.508 275.989 194.283 270.663 180.94 257.87C175.873 253.011 174.316 248.597 174.238 241.725Z"/><path fill="#6F5FF3" d="M184.17 253.557C187.969 257.419 192.795 261.157 197.846 263.188C199.769 263.961 200.149 264.243 201.463 265.833L201.104 265.876C198.045 266.257 184.188 258.863 183.129 255.001C183.356 254.023 183.256 254.347 184.17 253.557Z"/><path fill="#433CD8" d="M177.11 233.69C178.744 235.837 177.616 234.575 179.43 235.626C183.562 238.019 191.415 244.929 193.905 248.814C194.078 249.079 194.238 249.351 194.387 249.63L194.037 249.363C189.159 245.588 185.77 240.651 179.872 238.154C178.739 237.675 177.461 236.621 176.157 236.836C175.793 238.147 176.147 239.988 174.414 240.176C174.841 237.96 175.972 235.626 177.11 233.69Z"/><path fill="#00002C" d="M279.649 219.866L283.526 222.41C283.402 222.852 283.443 222.867 283.209 223.243C281.986 222.36 280.536 221.481 279.248 220.661L279.649 219.866Z"/><path fill="#433CD8" d="M0 112.15C3.42531 112.209 6.32175 116.654 8.21447 117.053C13.243 121.831 18.1597 126.492 22.9002 131.584C24.6411 133.454 27.9094 136.486 29.2444 138.527C32.1153 137.358 34.9354 136.788 37.6959 136.208C40.6648 135.585 58.54 132.704 59.6355 131.573C62.2327 142.891 60.3229 159.355 68.9985 168.543C71.4414 171.129 75.0792 173.579 78.0335 175.629C80.953 176.185 87.4187 180.292 90.5014 181.689C93.3727 182.991 96.0044 183.942 98.9503 185.071C100.619 185.504 102.294 185.909 103.976 186.286C105.416 185.679 106.529 185.212 108.011 185.847C109.031 186.491 109.968 187.063 110.933 187.793C111.406 191.895 112.257 196.624 110.828 200.624C111.457 201.273 111.752 201.749 112.626 201.856L113.232 201.551L113.541 202.197C114.2 202.397 114.521 202.541 115.219 202.518C116.535 202.505 117.851 202.477 119.167 202.434C117.476 205.178 115.829 207.823 113.821 210.359C116.553 211.934 119.741 217.789 122.868 220.455C125.208 222.449 131.135 225.003 132.249 226.354C128.742 228.033 115.587 227.501 110.148 228.137C87.2163 230.929 64.903 237.49 44.11 247.555C38.1419 250.41 32.5922 253.243 27.0884 256.94C23.131 259.598 20.5048 262.36 16.9536 265.341C13.0242 263.529 4.40437 263.491 0 263.482L0 203L0 159.388L0 145.996L0 124.847L0 112.15Z"/><path fill="#6F5FF3" d="M0 112.15C3.42531 112.209 6.32175 116.654 8.21447 117.053C13.243 121.831 18.1597 126.492 22.9002 131.584C24.6411 133.454 27.9094 136.486 29.2444 138.527C32.1153 137.358 34.9354 136.788 37.6959 136.208C40.6648 135.585 58.54 132.704 59.6355 131.573C62.2327 142.891 60.3229 159.355 68.9985 168.543C71.4414 171.129 75.0792 173.579 78.0335 175.629C78.1248 177.876 79.1913 180.083 80.0888 182.116C79.1839 182.272 77.6734 182.586 76.8101 182.672C70.4525 184.456 63.3918 186.686 57.0158 188.154L15.2166 199.086C10.237 200.361 4.97374 201.892 0 203L0 159.388L0 145.996L0 124.847L0 112.15Z"/><defs><linearGradient id="gradient_21" gradientUnits="userSpaceOnUse" x1="23.264141" y1="172.9949" x2="52.12685" y2="128.16402"><stop offset="0" stop-color="#391ECE"/><stop offset="1" stop-color="#4D4AE7"/></linearGradient></defs><path fill="url(#gradient_21)" d="M0 112.15C3.42531 112.209 6.32175 116.654 8.21447 117.053C13.243 121.831 18.1597 126.492 22.9002 131.584C24.6411 133.454 27.9094 136.486 29.2444 138.527C32.1153 137.358 34.9354 136.788 37.6959 136.208C40.6648 135.585 58.54 132.704 59.6355 131.573C62.2327 142.891 60.3229 159.355 68.9985 168.543C71.4414 171.129 75.0792 173.579 78.0335 175.629C78.1248 177.876 79.1913 180.083 80.0888 182.116C79.1839 182.272 77.6734 182.586 76.8101 182.672C76.3338 182.395 76.5354 182.471 76.0314 182.331C73.1336 181.527 70.2284 180.487 67.5988 179.009C59.1791 174.276 50.4775 164.931 42.0818 159.194C38.8659 156.996 35.3715 154.991 31.4932 154.285C24.7833 153.065 7.61754 157.934 0 159.388L0 145.996L0 124.847L0 112.15Z"/><path fill="#6F5FF3" d="M0 124.847C2.53324 126.684 5.62204 130.278 7.84879 132.619C10.8165 135.739 14.0678 138.946 17.5006 141.559C11.1279 143.553 6.51543 144.683 0 145.996L0 124.847Z"/><path fill="#24279F" d="M78.0335 175.629C80.953 176.185 87.4187 180.292 90.5014 181.689C93.3727 182.991 96.0044 183.942 98.9503 185.071C100.619 185.504 102.294 185.909 103.976 186.286C105.416 185.679 106.529 185.212 108.011 185.847C109.031 186.491 109.968 187.063 110.933 187.793C111.406 191.895 112.257 196.624 110.828 200.624C111.457 201.273 111.752 201.749 112.626 201.856L113.232 201.551L113.541 202.197C114.2 202.397 114.521 202.541 115.219 202.518C116.535 202.505 117.851 202.477 119.167 202.434C117.476 205.178 115.829 207.823 113.821 210.359C111.954 211.792 109.794 213.278 107.587 214.115C101.746 216.33 83.0129 220.86 77.2945 220.735C75.9674 220.021 75.9151 220.803 75.0813 219.322C75.3688 218.716 75.3671 218.761 75.3843 218.094C75.0157 217.235 74.304 216.798 73.5614 216.202L70.9246 216.67C71.279 215.17 71.6572 214.724 72.4618 213.436C71.2008 211.73 68.5799 208.248 66.6616 207.636C64.4506 206.93 64.1582 207.769 61.8428 205.374C57.2437 200.618 57.0415 194.35 57.0158 188.154C63.3918 186.686 70.4525 184.456 76.8101 182.672C77.6734 182.586 79.1839 182.272 80.0888 182.116C79.1913 180.083 78.1248 177.876 78.0335 175.629Z"/><path fill="#E26FF8" d="M103.976 186.286C105.416 185.679 106.529 185.212 108.011 185.847C109.031 186.491 109.968 187.063 110.933 187.793C111.406 191.895 112.257 196.624 110.828 200.624C107.73 199.343 106.148 198.422 103.764 196.043C102.532 193.942 101.983 193.075 101.26 190.762C102.044 188.749 102.687 187.945 103.976 186.286Z"/><path fill="#433CD8" d="M103.764 196.043C102.426 195.982 102.469 196.087 101.412 195.062C99.8733 193.569 97.2719 186.476 98.9503 185.071C100.619 185.504 102.294 185.909 103.976 186.286C102.687 187.945 102.044 188.749 101.26 190.762C101.983 193.075 102.532 193.942 103.764 196.043Z"/><path fill="#433CD8" d="M113.541 202.197C114.2 202.397 114.521 202.541 115.219 202.518C116.435 202.828 117.104 202.53 117.646 203.2L117.373 203.582C116.068 204.023 113.341 204.052 112.909 202.429L113.541 202.197Z"/><path fill="#0B1260" d="M73.5614 216.202C74.304 216.798 75.0157 217.235 75.3843 218.094C75.3671 218.761 75.3688 218.716 75.0813 219.322C75.9151 220.803 75.9674 220.021 77.2945 220.735C71.7982 222.412 64.6898 224.928 58.8839 223.73C56.4873 223.236 55.1756 220.341 56.0836 218.204C56.2456 217.823 60.397 218.624 60.8802 218.532C64.2802 218.36 67.6491 217.594 70.9246 216.67L73.5614 216.202Z"/><defs><linearGradient id="gradient_22" gradientUnits="userSpaceOnUse" x1="189.01077" y1="244.58932" x2="220.32063" y2="151.49167"><stop offset="0" stop-color="#7C81F2"/><stop offset="1" stop-color="#5836FC"/></linearGradient></defs><path fill="url(#gradient_22)" d="M139.916 188.214C143.529 188.07 147.214 189.024 150.941 188.766C166.91 187.646 183.158 184.486 198.154 178.825C208.709 174.84 219.232 170.574 228.938 164.775C231.798 163.066 233.973 160.469 237.249 159.079C238.471 159.793 241.031 159.556 242.527 159.511C245.494 161.562 246.94 162.885 250.579 163.509C250.852 163.392 252.5 162.704 252.65 162.595C254.216 162.397 256.245 163.079 257.874 163.432C262.915 165.502 288.471 181.388 291.219 185.513C292.021 186.652 291.98 186.752 292.065 188.103L292.135 189.14C292.16 189.519 292.149 189.379 292.232 189.825C292.346 191.674 292.684 193.416 292.997 195.24C289.182 194.777 283.123 193.485 279.365 192.578C278.787 192.999 278.37 193.41 277.678 193.5C276.711 193.491 271.747 192.511 270.499 192.286C262.387 190.076 252.672 189.332 244.357 188.713C234.417 189.014 224.451 188.652 214.425 189.672C195.655 191.583 170.336 198.625 154.325 208.769C150.679 211.096 147.221 213.706 143.983 216.574C140.381 219.767 136.49 224.512 132.249 226.354C131.135 225.003 125.208 222.449 122.868 220.455C119.741 217.789 116.553 211.934 113.821 210.359C115.829 207.823 117.476 205.178 119.167 202.434L119.538 201.899C121.671 198.276 123.122 197.035 126.667 194.864C128.783 192.923 130.787 191.404 131.153 188.403C131.889 188.223 132.445 188.063 133.171 187.837C136.172 187.174 136.954 187.445 139.916 188.214Z"/><defs><linearGradient id="gradient_23" gradientUnits="userSpaceOnUse" x1="196.10335" y1="170.56822" x2="200.61496" y2="187.23845"><stop offset="0" stop-color="#1A1698"/><stop offset="1" stop-color="#4036E4"/></linearGradient></defs><path fill="url(#gradient_23)" d="M139.916 188.214C143.529 188.07 147.214 189.024 150.941 188.766C166.91 187.646 183.158 184.486 198.154 178.825C208.709 174.84 219.232 170.574 228.938 164.775C231.798 163.066 233.973 160.469 237.249 159.079C238.471 159.793 241.031 159.556 242.527 159.511C245.494 161.562 246.94 162.885 250.579 163.509C250.852 163.392 252.5 162.704 252.65 162.595C254.216 162.397 256.245 163.079 257.874 163.432C255.318 165.47 252.54 166.75 249.874 168.456C243.689 172.415 237.165 174.791 230.389 177.465C228.164 178.343 225.882 179.979 223.588 180.79C219.524 182.043 214.828 181.991 210.616 183.347C204.204 185.411 197.769 186.73 191.387 188.912C188.173 190.012 183.94 192.25 181.091 193.071C178.636 193.779 172.689 194.415 169.906 194.766C161.577 195.817 151.153 197.719 142.842 196.755C142.356 196.698 141.871 196.633 141.387 196.561C140.307 195.387 139.771 194.653 139.043 193.227C140.369 192.954 140.448 193.136 141.112 192.206C141.198 191.131 140.073 189.791 139.916 188.214Z"/><path fill="#433CD8" d="M133.171 187.837C136.172 187.174 136.954 187.445 139.916 188.214C140.073 189.791 141.198 191.131 141.112 192.206C140.448 193.136 140.369 192.954 139.043 193.227C138.022 191.642 135.3 191.369 133.505 191.062C132.233 192.338 131.702 193.319 130.757 194.848C128.993 195.398 128.337 195.861 126.667 194.864C128.783 192.923 130.787 191.404 131.153 188.403C131.889 188.223 132.445 188.063 133.171 187.837Z"/><path fill="#7777F6" d="M244.357 188.713C251.696 186.603 271.826 190.293 279.365 192.578C278.787 192.999 278.37 193.41 277.678 193.5C276.711 193.491 271.747 192.511 270.499 192.286C262.387 190.076 252.672 189.332 244.357 188.713Z"/><defs><linearGradient id="gradient_24" gradientUnits="userSpaceOnUse" x1="183.7303" y1="304.37454" x2="194.40053" y2="281.5824"><stop offset="0" stop-color="#EEE9FB"/><stop offset="1" stop-color="#8C89FF"/></linearGradient></defs><path fill="url(#gradient_24)" d="M130.898 259.315L131.231 259.225C132.149 260.288 132.985 262.311 133.76 263.612C141.271 276.217 151.268 286.446 164.397 293.203C176.783 299.967 191.421 304.795 205.291 307.293C206.655 307.504 212.588 308.5 213.66 308.446C225.598 310.976 244.851 309.899 256.831 308.389L257.248 308.634C256.05 308.77 254.82 308.751 253.965 309.557L253.855 310.173C255.307 309.954 256.968 309.58 258.381 309.94C251.754 311.328 240.852 311.554 234.01 311.67C210.406 312.073 191.61 309.057 170.329 298.639C167.412 296.951 164.491 295.498 161.612 293.682C158.516 291.728 155.508 289.605 152.363 287.76C141.142 279.272 135.773 272.565 130.898 259.315Z"/><path fill="#24279F" d="M152.363 287.76C155.508 289.605 158.516 291.728 161.612 293.682C164.491 295.498 167.412 296.951 170.329 298.639C170.112 298.947 169.785 299.398 169.775 299.79C169.64 305.53 171.171 311.842 169.634 317.478L169.239 318.425C164.855 314.022 160.325 309.379 157.435 303.816C155.972 301 151.451 290.748 152.363 287.76Z"/><path fill="#7777F6" d="M0 263.482C4.40437 263.491 13.0242 263.529 16.9536 265.341C12.131 270.149 8.19219 274.317 4.81862 280.411C3.38633 282.998 1.57272 287.557 0 289.851L0 263.482Z"/><path fill="#181A86" d="M169.634 317.478C170.688 320.527 197.697 337.536 197.919 340.151C196.466 340.048 175.897 323.643 173.619 322.24C173.061 321.896 169.66 319.012 169.239 318.425L169.634 317.478Z"/><defs><linearGradient id="gradient_25" gradientUnits="userSpaceOnUse" x1="82.80201" y1="257.07132" x2="91.814636" y2="296.66568"><stop offset="0" stop-color="#20238B"/><stop offset="1" stop-color="#494CC7"/></linearGradient></defs><path fill="url(#gradient_25)" d="M84.137 258.294C85.7936 255.934 92.5275 254.525 95.3166 254.162C102.87 253.178 110.239 250.935 117.672 249.63C120.12 249.224 122.583 248.911 125.055 248.69C124.488 251.892 124.484 257.74 124.278 261.21C123.855 267.711 123.226 274.197 122.392 280.658C122.217 281.965 121.452 287.12 121.056 288.114C120.708 291.351 120.192 297.521 116.58 298.489C112.508 300.392 99.5047 303.11 94.7666 303.467C81.3481 304.476 62.9819 305.399 52.0362 296.596C49.7408 294.871 45.4915 289.502 46.372 286.529C47.8525 285.572 47.7225 285.578 47.9212 283.764C48.0823 282.292 48.7605 281.004 50.2906 280.641C50.487 280.721 51.3759 281.076 51.483 281.074C53.2833 280.68 55.9443 277.395 57.2906 276.268C65.3802 269.495 75.119 265.116 83.8957 259.198C85.1444 258.899 91.4692 256.79 92.1397 256.261C89.6491 256.27 86.9378 258.064 84.137 258.294Z"/><path fill="#433CD8" d="M68.1933 300.853C71.4027 298.258 80.7716 296.922 85.1095 296.034C92.0196 294.672 98.8963 293.145 105.734 291.456C107.569 290.996 118.916 287.925 120.11 288.083C120.088 288.841 120.079 289.6 120.086 290.358C120.734 288.974 120.035 289.225 121.056 288.114C120.708 291.351 120.192 297.521 116.58 298.489C112.508 300.392 99.5047 303.11 94.7666 303.467C81.3481 304.476 62.9819 305.399 52.0362 296.596C52.545 296.427 52.6599 296.26 53.1676 296.466C58.3808 298.583 62.5624 300.007 68.1933 300.853Z"/><defs><linearGradient id="gradient_26" gradientUnits="userSpaceOnUse" x1="83.850166" y1="294.26645" x2="84.629257" y2="303.78726"><stop offset="0" stop-color="#625FE3"/><stop offset="1" stop-color="#918EFF"/></linearGradient></defs><path fill="url(#gradient_26)" d="M52.0362 296.596C52.545 296.427 52.6599 296.26 53.1676 296.466C58.3808 298.583 62.5624 300.007 68.1933 300.853C71.9286 301.326 75.6367 301.299 79.3325 301.356C91.1899 301.537 102.66 299.926 114.274 297.757C115.158 297.592 115.829 298.032 116.58 298.489C112.508 300.392 99.5047 303.11 94.7666 303.467C81.3481 304.476 62.9819 305.399 52.0362 296.596Z"/><defs><linearGradient id="gradient_27" gradientUnits="userSpaceOnUse" x1="38.107494" y1="257.7753" x2="94.084236" y2="283.98264"><stop offset="0" stop-color="#11196B"/><stop offset="1" stop-color="#3F43C5"/></linearGradient></defs><path fill="url(#gradient_27)" d="M118.885 240.739C121.587 240.535 124.011 240.51 126.716 240.48C126.27 242.333 125.867 244.09 125.661 245.991C122.87 246.282 119.644 246.635 116.861 246.528C110.428 247.326 104.53 247.416 97.4644 248.391C78.1288 251.056 26.8401 270.202 48.608 296.716C48.9856 297.176 50.2988 298.635 50.5322 299.04C50.1966 303.839 53.8803 307.941 56.6724 311.458C57.6275 311.81 58.378 312.025 59.2247 312.606C57.9718 313.734 57.6953 313.97 56.7339 315.39C52.258 314.195 47.8235 312.849 43.4382 311.355C39.4053 310.795 33.8534 307.143 30.9855 304.364C20.4474 294.116 24.541 280.871 34.0384 271.542C51.0762 254.808 74.0664 246.332 97.2985 242.677C104.247 241.584 111.863 240.744 118.885 240.739Z"/><path fill="#433CD8" d="M118.885 240.739C121.587 240.535 124.011 240.51 126.716 240.48C126.27 242.333 125.867 244.09 125.661 245.991C122.87 246.282 119.644 246.635 116.861 246.528C114.969 246.249 112.897 246.758 111.613 245.827L111.543 245.271C112.534 243.908 112.365 243.473 112.869 242.231C113.46 240.778 116.954 241.759 118.885 240.739Z"/><path fill="#433CD8" d="M43.4382 311.355C44.0064 308.8 54.4421 311.083 56.6724 311.458C57.6275 311.81 58.378 312.025 59.2247 312.606C57.9718 313.734 57.6953 313.97 56.7339 315.39C52.258 314.195 47.8235 312.849 43.4382 311.355Z"/><path fill="#7777F6" d="M51.6739 324.604C68.2801 328.514 88.2682 327.67 104.968 325.096C111.175 324.14 118.105 322.206 124.206 322.206C126.441 325.237 126.721 326.713 130.404 327.402L130.818 327.482L131.067 327.526C124.789 329.758 113.177 333.287 106.688 333.937C88.5722 337.218 72.0385 338.941 53.7332 335.864C51.3925 335.47 47.1977 334.777 45.0713 334.062C45.3954 334.36 43.7873 333.027 44.3093 333.593C43.1627 332.349 43.1549 331.908 41.6568 330.97C47.3412 332.176 51.8625 333.126 57.6594 333.831C56.8389 331.817 51.9544 328.97 51.6739 324.604Z"/><defs><linearGradient id="gradient_28" gradientUnits="userSpaceOnUse" x1="74.182274" y1="330.80383" x2="74.371704" y2="336.94669"><stop offset="0" stop-color="#A2A1FF"/><stop offset="1" stop-color="#D7CDFF"/></linearGradient></defs><path fill="url(#gradient_28)" d="M41.6568 330.97C47.3412 332.176 51.8625 333.126 57.6594 333.831C59.5181 334.291 63.3449 334.454 65.3698 334.556C75.222 334.974 85.092 334.572 94.8777 333.355C96.2619 333.195 103.607 331.83 105.295 332.311C105.568 332.389 106.586 333.5 106.688 333.937C88.5722 337.218 72.0385 338.941 53.7332 335.864C51.3925 335.47 47.1977 334.777 45.0713 334.062C45.3954 334.36 43.7873 333.027 44.3093 333.593C43.1627 332.349 43.1549 331.908 41.6568 330.97Z"/><defs><linearGradient id="gradient_29" gradientUnits="userSpaceOnUse" x1="87.089325" y1="301.11023" x2="88.104988" y2="315.98575"><stop offset="0" stop-color="#6974D9"/><stop offset="1" stop-color="#A3A8FF"/></linearGradient></defs><path fill="url(#gradient_29)" d="M50.5322 299.04C51.6341 299.717 54.6838 301.665 55.5071 302.588C71.8086 310.887 100.538 308.124 117.877 303.463C118.664 306.673 119.189 308.169 120.682 311.108C116.29 312.48 111.237 314.226 106.766 314.92C98.9065 317.07 79.3408 318.251 71.2079 317.586C66.3183 317.377 61.4654 316.641 56.7339 315.39C57.6953 313.97 57.9718 313.734 59.2247 312.606C58.378 312.025 57.6275 311.81 56.6724 311.458C53.8803 307.941 50.1966 303.839 50.5322 299.04Z"/><path fill="#9A9DE7" d="M71.2079 317.586C73.4198 317.666 74.295 316.519 75.911 316.363C81.5877 315.814 101.892 312.947 106.542 314.415L106.766 314.92C98.9065 317.07 79.3408 318.251 71.2079 317.586Z"/><path fill="#433CD8" d="M50.5322 299.04C51.6341 299.717 54.6838 301.665 55.5071 302.588C52.5608 305.509 62.8537 310.424 64.5416 311.533C63.7199 311.899 62.8559 312.214 62.1872 312.8L62.0437 312.962C60.7307 313.047 60.5342 312.943 59.2247 312.606C58.378 312.025 57.6275 311.81 56.6724 311.458C53.8803 307.941 50.1966 303.839 50.5322 299.04Z"/><path fill="#7777F6" d="M62.0437 312.962L62.1872 312.8C64.062 313.218 66.963 313.151 68.5193 313.639L68.5036 313.917C67.223 314.409 63.1025 314.009 62.0437 312.962Z"/><defs><linearGradient id="gradient_30" gradientUnits="userSpaceOnUse" x1="19.046534" y1="313.8714" x2="55.189892" y2="311.62943"><stop offset="0" stop-color="#283089"/><stop offset="1" stop-color="#464CC1"/></linearGradient></defs><path fill="url(#gradient_30)" d="M30.3476 315.379C24.0372 310.985 15.5039 300.633 18.1273 292.307L18.3807 292.341C19.3004 295.637 18.2011 298.046 19.7463 301.506C24.0152 311.066 33.1041 317.234 42.444 321.228C45.5542 322.557 48.6243 323.37 51.6739 324.604C51.9544 328.97 56.8389 331.817 57.6594 333.831C51.8625 333.126 47.3412 332.176 41.6568 330.97C36.3134 329.086 30.646 328.598 25.528 325.434C26.2259 323.194 29.184 318.888 30.3476 315.379Z"/><path fill="#433CD8" d="M52.6908 248.955C60.8218 244.757 63.145 244.452 71.5234 241.685C91.5722 235.064 112.198 232.228 133.29 231.382C132.196 232.463 130.328 234.415 128.841 234.661C122.255 235.752 115.127 235.761 108.469 236.456C92.7564 238.214 77.3568 242.107 62.696 248.027C61.1418 248.644 56.1337 250.519 54.8385 251.221L54.298 250.656C53.7946 250.128 53.1584 249.494 52.6908 248.955Z"/><defs><linearGradient id="gradient_31" gradientUnits="userSpaceOnUse" x1="26.679985" y1="328.54114" x2="30.779016" y2="322.81799"><stop offset="0" stop-color="#6967F3"/><stop offset="1" stop-color="#A6A6FF"/></linearGradient></defs><path fill="url(#gradient_31)" d="M13.2635 319.299C13.778 318.694 13.7056 318.842 14.5433 318.543C18.5432 321.541 21.252 323.007 25.528 325.434C30.646 328.598 36.3134 329.086 41.6568 330.97C43.1549 331.908 43.1627 332.349 44.3093 333.593C43.7873 333.027 45.3954 334.36 45.0713 334.062C32.0814 332.152 23.3142 327.019 13.2635 319.299Z"/><path fill="#181A86" d="M7.19271 313.415C9.38055 314.331 13.4354 316.405 14.5433 318.543C13.7056 318.842 13.778 318.694 13.2635 319.299C11.051 317.472 9.13381 315.525 7.19271 313.415Z"/><path fill="#181A86" d="M54.298 250.656L54.8385 251.221C53.6095 252.157 50.1936 254.025 48.6333 254.253L48.445 253.967C49.7044 252.598 53.0459 252.086 54.298 250.656Z"/><defs><linearGradient id="gradient_32" gradientUnits="userSpaceOnUse" x1="334.60782" y1="401.72308" x2="475.18988" y2="242.17862"><stop offset="0" stop-color="#D3D6F0"/><stop offset="1" stop-color="#F1F0F9"/></linearGradient></defs><path fill="url(#gradient_32)" d="M359.965 233.613C366.252 232.762 372.608 231.155 378.955 230.582C384.826 230.052 390.995 229.446 396.892 229.538C402.527 229.661 408.155 230.02 413.76 230.614C417.041 230.96 422.012 231.69 425.23 231.723L425.466 231.724C431.419 233.109 437.522 234.338 443.363 236.109C471.313 244.276 490.201 254.35 512 274.034L512 298.332L512 336.7L512 362.758L512 365.983L512 402.702C500.136 414.986 494.54 417.679 479.011 423.906C461.302 429.813 444.855 431.737 426.267 430.837C422.401 430.649 417.697 430.671 413.943 430.118C413.476 429.914 409.653 429.316 408.887 429.171C391.542 425.893 375.863 421.206 359.759 413.629C354.33 411.275 349.367 408.92 344.296 405.8C327.268 395.993 316.147 388.139 304.239 372.612C299.936 366.708 296.136 360.453 292.881 353.913C290.413 350.051 288.814 342.988 287.869 338.489C284.516 322.53 290.949 308.906 296.692 294.477C297.842 292.599 301.733 283.481 302.18 281.422L303.285 280.101C305.666 276.437 307.065 271.947 308.865 267.978C311.958 261.155 318.62 255.705 324.161 250.754C328.768 247.069 332.524 244.351 337.828 241.676C338.488 241.543 338.794 241.295 339.36 240.943C340.848 240.168 343.52 239.085 345.151 238.344C348.63 236.784 356.061 234.802 359.965 233.613Z"/><path fill="#9A9DE7" d="M458.08 364.393C446.567 365.378 434.973 364.792 423.618 362.652C391.178 356.594 357.491 340.78 337.904 313.331C323.828 293.605 326.893 268.67 347.669 255.234C370.225 240.647 402.378 240.806 427.8 245.76C452.622 250.597 477.154 262.214 495.321 279.859C498.282 282.706 502.405 283.369 505.123 287.408L505.131 290.17C508.632 293.421 509.423 294.463 512 298.332L512 336.7C510.263 338.754 508.692 340.959 506.968 343.033C506.63 343.44 505.153 344.998 504.968 345.301C500.722 349.783 493.792 354.991 487.964 357.196C481.473 360.798 474.27 362.085 467 363.247C464.225 363.691 460.749 363.878 458.08 364.393Z"/><path fill="#7777F6" d="M487.964 357.196C488.385 353.299 497.666 345.468 501.346 344.328C502.558 343.952 504.01 344.729 504.968 345.301C500.722 349.783 493.792 354.991 487.964 357.196Z"/><path fill="#E8E9F5" d="M369.44 335.291C367.498 333.877 362.245 328.749 360.134 326.799C357.511 323.969 350.846 319.878 348.778 317.144C343.915 310.716 336.593 296.684 335.774 288.778C332.931 261.363 369.264 249.482 390.248 246.957C413.848 244.116 442.404 250.405 463.115 260.181C472.242 264.544 480.881 269.861 488.889 276.042C501.172 285.379 508.741 299.26 511.402 314.428C512.428 321.4 509.018 330.012 504.865 335.348C495.621 347.225 478.223 352.314 463.918 353.949C436.252 357.111 408.029 351.744 382.617 340.731C381.382 340.196 379.532 339.512 378.175 339.519L377.959 339.709C376.334 339.872 371.771 335.932 369.44 335.291Z"/><path fill="#9A9DE7" d="M482.858 316.866L483.189 317.078C483.55 318.853 484.742 322.569 485.264 324.77C483.658 327.992 477.959 332.617 474.775 334.244C453.549 345.093 424.72 341.325 403.385 333.408L403.085 333.009C403.634 330.896 404.338 330.843 404.963 329.155C404.591 328.391 404.444 328.555 403.401 328.106L403.684 327.601C425.079 336.038 471.102 342.119 482.858 316.866Z"/><path fill="#BFC3F5" d="M403.401 328.106C399.604 326.64 392.244 323.406 388.967 321.422L389.065 321.304C391.645 322.067 393.234 323.088 395.654 324.215C398.296 325.424 400.974 326.554 403.684 327.601L403.401 328.106Z"/><path fill="#BFC3F5" d="M403.385 333.408C401.058 332.825 391.714 328.909 390.109 327.358L390.245 327.108C392.59 327.874 399.666 331.627 403.085 333.009L403.385 333.408Z"/><path fill="#BFC3F5" d="M482.858 316.866C483.186 315.923 483.589 314.622 484.422 314.081C484.74 314.88 483.662 316.404 483.189 317.078L482.858 316.866Z"/><path fill="#BFC3F5" d="M399.736 351.352C384.725 350.417 364.736 337.221 353.689 327.182C352.798 326.372 350.694 324.406 350.248 323.392C350.796 323.161 351.552 324.059 352.075 324.541C357.071 329.146 362.333 334.3 368.773 336.894C369.277 336.462 369.225 336.076 369.44 335.291C371.771 335.932 376.334 339.872 377.959 339.709L378.175 339.519C379.373 342.864 395.923 349.618 399.736 351.352Z"/><defs><linearGradient id="gradient_33" gradientUnits="userSpaceOnUse" x1="472.88205" y1="431.12601" x2="386.93317" y2="370.62646"><stop offset="0" stop-color="#484BD9"/><stop offset="1" stop-color="#ADAFEA"/></linearGradient></defs><path fill="url(#gradient_33)" d="M512 365.983L512 402.702C500.136 414.986 494.54 417.679 479.011 423.906C461.302 429.813 444.855 431.737 426.267 430.837C422.401 430.649 417.697 430.671 413.943 430.118C413.476 429.914 409.653 429.316 408.887 429.171C391.542 425.893 375.863 421.206 359.759 413.629C362.65 406.163 368.23 399.76 372.178 392.825C372.878 391.595 373.644 390.28 373.781 388.86C377.292 384.525 385.488 378.493 386.928 371.955C416.309 381.933 454.889 385.801 485.103 377.462C496.962 373.899 501.133 371.934 512 365.983Z"/><path fill="#433CD8" d="M512 365.983L512 402.702C500.136 414.986 494.54 417.679 479.011 423.906C477.121 417.233 482.551 395.657 483.743 387.99C484.181 385.176 485.41 380.332 485.103 377.462C496.962 373.899 501.133 371.934 512 365.983Z"/><path fill="#BFC3F5" d="M504.968 345.301C505.153 344.998 506.63 343.44 506.968 343.033C508.692 340.959 510.263 338.754 512 336.7L512 362.758C505.334 365.253 500.159 368.72 493.895 371.106C484.166 374.716 473.998 377.009 463.661 377.925C458.986 378.348 454.696 378.306 449.993 378.909C451.363 378.357 455.625 376.819 455.646 375.426C455.7 371.854 460.089 368.224 459.286 364.744C458.666 364.291 458.984 364.482 458.08 364.393C460.749 363.878 464.225 363.691 467 363.247C474.27 362.085 481.473 360.798 487.964 357.196C493.792 354.991 500.722 349.783 504.968 345.301Z"/><path fill="#9A9DE7" d="M302.18 281.422L303.285 280.101C304.235 281.959 304.248 288.395 304.477 290.94C304.665 293.082 304.961 295.213 305.364 297.324C306.604 303.637 308.164 307.22 310.434 312.989L310.166 313.285C307.189 314.919 299.105 342.499 296.278 346.807C295.435 348.09 293.751 353.085 292.881 353.913C290.413 350.051 288.814 342.988 287.869 338.489C284.516 322.53 290.949 308.906 296.692 294.477C297.842 292.599 301.733 283.481 302.18 281.422Z"/><path fill="#BFC3F5" d="M373.781 388.86C373.644 390.28 372.878 391.595 372.178 392.825C368.23 399.76 362.65 406.163 359.759 413.629C354.33 411.275 349.367 408.92 344.296 405.8C346.733 403.221 360.585 396.484 364.365 394.218C366.197 393.12 371.998 389.718 373.781 388.86Z"/><path fill="#BFC3F5" d="M310.166 313.285L310.434 312.989C311.589 314.684 314.811 320.431 315.217 322.298C314.087 321.007 310.826 314.95 310.166 313.285Z"/><defs><linearGradient id="gradient_34" gradientUnits="userSpaceOnUse" x1="52.482788" y1="509.689" x2="102.52769" y2="429.39548"><stop offset="0" stop-color="#3135BD"/><stop offset="1" stop-color="#6E6CFF"/></linearGradient></defs><path fill="url(#gradient_34)" d="M0 445.429C6.66425 443.51 13.3668 441.25 20.0284 439.231C33.7614 435.154 47.4703 430.995 61.1542 426.755C69.3567 424.197 78.3486 421.099 86.5498 418.814C91.1954 424.155 95.8111 431.745 99.349 437.961C111.898 460.01 125.974 481.069 138.772 502.951C140.129 505.27 143.322 509.723 144.179 512L53.206 512L34.9496 512L0 512L0 475.574L0 445.429Z"/><path fill="#24279F" d="M0 475.574C1.54098 477.049 3.47876 479.283 4.94608 480.569C9.07001 484.865 12.4777 487.516 16.6751 491.385C22.4059 496.668 30.5196 505.613 34.9496 512L0 512L0 475.574Z"/><path fill="#433CD8" d="M4.94608 480.569C8.41681 480.609 12.998 483.798 16.0997 485.468C22.6793 489.013 29.0102 493.137 35.3998 497.006C40.8008 500.414 52.0813 506.635 56.4386 510.996C54.9099 511.223 54.4082 511.126 53.206 512L34.9496 512C30.5196 505.613 22.4059 496.668 16.6751 491.385C12.4777 487.516 9.07001 484.865 4.94608 480.569Z"/><path fill="#BFC3F5" d="M87.2031 491.52C84.9146 491.19 79.4641 487.914 77.0004 486.991C74.7432 486.146 68.3874 483.505 67.1259 481.603C66.7855 479.284 70.3445 478.133 72.1296 477.477C77.5621 475.482 81.3373 476.26 86.7625 477.625C93.4152 479.3 99.9909 480.393 106.212 483.44C105.493 483.949 105.11 484.252 104.439 484.825C102.842 489.138 90.4683 495.899 87.2031 491.52Z"/><path fill="#24279F" d="M104.439 484.825C102.842 489.138 90.4683 495.899 87.2031 491.52C92.6968 491.639 99.6774 487.439 104.439 484.825Z"/><path fill="#433CD8" d="M369.176 455.557C374.226 464.29 380.213 471.153 386.498 479.014C392.289 486.195 397.95 493.48 403.479 500.865C404.647 502.398 411.584 511.105 412.061 512L198.918 512C198.492 511.529 198.404 511.504 197.863 511.152C223.807 502.168 251.066 494.509 277.382 486.34C295.935 480.428 314.409 474.274 332.801 467.878C340.459 465.293 348.212 463.012 355.855 460.423C358.591 459.497 364.361 457.641 366.738 456.208C367.526 456.077 368.401 455.787 369.176 455.557Z"/><path fill="#E26FF8" d="M280.707 490.78C290.094 490.394 294.047 493.937 288.055 502.507C287.662 502.934 286.844 503.665 286.394 504.09C282.591 502.179 277.053 494.522 280.707 490.78Z"/><path fill="#6F5FF3" d="M383.114 442.743C384.714 442.691 396.722 438.568 398.769 437.858C399.287 440.599 399.333 441.601 402.049 442.796L402.012 442.928C403.502 442.948 404.847 443.993 406.382 444.223C413.183 445.242 420.017 446.051 426.794 447.227C428.119 447.458 429.4 447.749 430.744 447.847C429.503 448.207 419.547 446.193 417.317 445.94C412.215 445.36 407.107 444.96 402.203 443.375C401.992 443.309 396.83 445.603 395.452 445.857C394.999 446.48 395.21 446.576 395.327 447.607C396.066 448.175 398.064 447.651 397.609 448.688C396.476 451.271 398.814 453.072 399.67 455.493C403.386 466.009 408.394 476.014 411.958 486.572C412.218 487.341 414.848 489.519 415.613 490.097L415.64 490.078L414.974 490.328C417.606 491.196 419.826 491.946 422.39 493.017C424.396 493.856 426.815 495.052 428.812 495.737C429.365 496.42 429.251 496.047 429.235 496.87C428.602 498.119 423.703 500.765 422.465 501.856C421.07 503.084 419.902 501.795 418.733 503.226C419.11 503.568 419.125 503.688 419.543 503.808L418.895 504.391L418.967 504.7C419.659 504.823 420.218 504.483 420.897 504.205C421.65 505.114 420.95 505.758 420.384 506.702C420.746 507.582 422.195 509.736 423.065 510.097C422.796 510.44 422.523 510.78 422.246 511.117C427.232 511.314 435.339 511.134 440.627 511.149C440.724 511.241 440.821 511.332 440.918 511.424L440.959 512L412.061 512C411.584 511.105 404.647 502.398 403.479 500.865C397.95 493.48 392.289 486.195 386.498 479.014C380.213 471.153 374.226 464.29 369.176 455.557C368.401 455.787 367.526 456.077 366.738 456.208L366.371 453.333L365.919 449.823C370.449 447.402 378.197 444.081 383.114 442.743Z"/><defs><linearGradient id="gradient_35" gradientUnits="userSpaceOnUse" x1="398.92831" y1="438.94131" x2="366.59616" y2="454.4057"><stop offset="0" stop-color="#1412AE"/><stop offset="1" stop-color="#3633F9"/></linearGradient></defs><path fill="url(#gradient_35)" d="M383.114 442.743C384.714 442.691 396.722 438.568 398.769 437.858C399.287 440.599 399.333 441.601 402.049 442.796L402.012 442.928C395.421 445.716 388.77 448.362 382.064 450.863C377.966 452.418 373.312 454.304 369.176 455.557C368.401 455.787 367.526 456.077 366.738 456.208L366.371 453.333L365.919 449.823C370.449 447.402 378.197 444.081 383.114 442.743Z"/><path fill="#E8E9F5" d="M410.148 490.277C416.231 490.056 423.413 494.232 429.054 496.412C426.927 498.405 425.352 499.428 422.841 500.89C420.105 502.353 417.716 503.642 414.675 502.12C411.76 500.661 407.905 498.044 406.658 494.933C405.501 492.047 407.97 490.992 410.148 490.277Z"/><path fill="#0B1260" d="M512 402.702L512 424.494C510.459 422.068 512.098 415.221 510.907 412.877C509.361 413.203 505.463 417.85 503.843 419.043C501.081 421.077 498.195 423.129 495.049 424.53C490.429 426.574 485.326 427.582 480.493 429.098C470.463 432.228 460.315 434.896 449.773 435.395C439.756 435.869 429.784 434.893 419.785 435.439C417.811 435.547 415.984 436.438 414.126 435.534C413.166 434.258 413.51 431.947 413.712 430.265L413.943 430.118C417.697 430.671 422.401 430.649 426.267 430.837C444.855 431.737 461.302 429.813 479.011 423.906C494.54 417.679 500.136 414.986 512 402.702Z"/><path fill="#BFC3F5" d="M479.94 475.956C489.301 462.325 496.648 461.615 512 462.791L512 471.863C506.145 477.197 502.465 479.836 494.435 479.471C494.025 479.454 493.615 479.433 493.205 479.407C487.604 477.972 486.281 478.84 479.94 475.956Z"/><defs><linearGradient id="gradient_36" gradientUnits="userSpaceOnUse" x1="360.52191" y1="429.82816" x2="351.289" y2="445.457"><stop offset="0" stop-color="#4F4FE4"/><stop offset="1" stop-color="#8D8EFF"/></linearGradient></defs><path fill="url(#gradient_36)" d="M338.333 418.121C339.276 418.017 339.731 417.677 340.558 417.22C341.573 418.834 345.919 425.231 347.308 425.853C355.046 429.32 363.053 433.295 370.845 436.709C374.944 438.504 378.835 441.935 383.114 442.743C378.197 444.081 370.449 447.402 365.919 449.823L366.371 453.333C366.207 454.063 366.197 454.365 365.747 454.974C363.021 450.239 358.93 445.397 355.512 441.017C349.495 433.307 343.882 426.189 338.333 418.121Z"/><path fill="#6F5FF3" d="M366.371 453.333L366.738 456.208C364.361 457.641 358.591 459.497 355.855 460.423C348.212 463.012 340.459 465.293 332.801 467.878C314.409 474.274 295.935 480.428 277.382 486.34C251.066 494.509 223.807 502.168 197.863 511.152C197.262 511.223 196.989 511.197 196.38 511.171L196.258 510.942C197.556 510.135 199.295 509.666 200.745 509.134C212.707 504.741 225.043 501.224 237.218 497.433C267.002 488.178 296.693 478.622 326.284 468.767L346.648 461.986C349.469 461.067 364.315 456.588 365.747 454.974C366.197 454.365 366.207 454.063 366.371 453.333Z"/><path fill="#181A86" d="M0 318.663C0.592634 318.871 0.598947 318.733 0.800379 319.249C1.61028 321.324 2.26842 323.991 2.82398 326.14C5.05916 335.066 7.0663 344.048 8.84344 353.076C6.76578 351.298 6.25729 338.984 4.21914 336.505C4.14163 336.411 3.80344 335.565 3.72615 335.376L3.31312 335.073C2.25907 335.285 1.8629 336.044 0.977798 336.964C0.325709 340.223 1.17302 345.91 0.643591 348.462C0.0638514 351.256 0.6277 364.978 0 366.423L0 318.663Z"/><path fill="#24279F" d="M493.205 479.407C493.615 479.433 494.025 479.454 494.435 479.471C502.465 479.836 506.145 477.197 512 471.863L512 477.457C507.797 480.309 501.954 482.781 496.692 482.235C495.234 482.084 493.473 480.968 493.205 479.407Z"/><path fill="#24279F" d="M398.769 437.858C401.209 437.161 405.569 436.063 407.724 435.23L408.252 435.365C408.36 437.552 408.041 437.417 408.733 439.646C407.278 440.316 403.424 442.391 402.049 442.796C399.333 441.601 399.287 440.599 398.769 437.858Z"/><path fill="#433CD8" d="M338.333 418.121C337.976 417.827 333.66 411.701 333.501 411.155C336.452 410.168 339.079 415.144 340.558 417.22C339.731 417.677 339.276 418.017 338.333 418.121Z"/><path fill="#6F5FF3" d="M148.703 400.156C149.885 399.6 155.765 397.891 157.468 397.344L176.116 391.257C192.251 385.91 208.201 380.182 224.599 375.704C228.726 374.577 233.288 372.506 237.34 371.651C239.53 371.189 244.985 371.286 247.411 371.267C252.197 371.211 256.984 371.189 261.771 371.2C271.804 371.317 280.941 372.509 290.752 374.312C292.269 374.591 296.683 374.729 297.477 375.542L296.571 375.858L297.159 376.188L297.252 376.588L297.468 377.26C296.478 378.614 296.581 376.978 296.097 378.407C297.383 379.602 297.285 380.385 297.351 382.072C297.467 385.014 297.181 388.069 298.18 390.893C300.058 396.203 314.238 411.805 318.797 416.045C329.584 426.079 343.054 433.462 353.138 444.246C352.529 444.838 351.717 445.582 351.174 446.212C351.381 447.857 351.515 448.909 351.903 450.528C348.266 452.003 345.615 454.573 342.11 456.225C337.844 458.236 332.899 459.198 328.586 460.899C319.289 464.565 309.92 467.692 300.167 469.943C297.12 470.646 293.884 471.029 290.81 471.643C287.606 472.225 284.351 473.794 281.192 474.274C276.895 474.872 272.518 474.919 268.198 475.191C255.582 475.987 242.843 475.215 230.652 471.676C222.944 469.439 215.105 466.976 207.588 464.141C203.888 462.746 200.506 460.519 197.07 458.604C190.457 454.947 184.262 450.984 177.927 446.876C173.435 443.963 167.161 440.893 163.492 437.005C159.574 432.852 155.377 424.991 153.031 419.682C150.498 413.95 149.93 406.538 148.579 400.485L148.703 400.156Z"/><path fill="#0B1260" d="M296.571 375.858L297.159 376.188L297.252 376.588C294.622 377.393 291.115 378.151 288.378 378.81C291.184 376.921 293.302 376.563 296.571 375.858Z"/><defs><linearGradient id="gradient_37" gradientUnits="userSpaceOnUse" x1="189.63394" y1="427.73276" x2="227.35558" y2="431.28403"><stop offset="0" stop-color="#4D55AE"/><stop offset="1" stop-color="#646ED1"/></linearGradient></defs><path fill="url(#gradient_37)" d="M189.636 422.029C191.886 419.656 194.063 418.187 197.569 418.187C204.47 418.187 212.765 419.868 218.664 423.57C221.942 425.627 224.871 428.071 228.584 429.135C230.724 429.539 232.24 431.037 233.853 432.468L233.6 432.642C231.65 434.009 229.53 435.84 227.691 437.379C220.421 443.464 213.06 444.283 204.244 440.961C198.651 438.949 194.62 436.03 190.5 431.833C189.053 430.687 187.069 428.647 186.253 426.991L188.481 422.985L189.636 422.029Z"/><path fill="#0B1260" d="M228.584 429.135C230.724 429.539 232.24 431.037 233.853 432.468L233.6 432.642C231.65 434.009 229.53 435.84 227.691 437.379C220.421 443.464 213.06 444.283 204.244 440.961C204.879 440.875 205.967 440.194 207.032 439.972C210.465 440.113 212.573 441.18 216.318 439.847C221.047 438.163 226.36 433.587 228.584 429.135Z"/><path fill="#433CD8" d="M189.636 422.029C190.557 425.736 188.165 427.565 190.75 431.459L190.5 431.833C189.053 430.687 187.069 428.647 186.253 426.991L188.481 422.985L189.636 422.029Z"/><path fill="#00002C" d="M190.75 431.459C197.448 436.718 198.322 437.916 207.032 439.972C205.967 440.194 204.879 440.875 204.244 440.961C198.651 438.949 194.62 436.03 190.5 431.833L190.75 431.459Z"/><path fill="#7777F6" d="M173.74 417.022C173.621 416.2 173.35 415.704 173.962 414.964C176.261 412.185 184.064 409.916 186.921 412.579C189.157 414.663 187.738 419.959 188.481 422.985L186.253 426.991C184.308 427.642 180.906 425.747 179.12 425.199C175.374 424.66 172.719 420.846 173.74 417.022Z"/><path fill="#E8E9F5" d="M173.74 417.022C176.931 414.791 178.116 415.152 182.068 415.273C181.676 419.203 181.6 421.869 179.12 425.199C175.374 424.66 172.719 420.846 173.74 417.022Z"/><path fill="#E26FF8" d="M466.173 486.954L466.709 487.089C468.25 488.909 468.517 490.585 468.408 492.916C468.168 498.017 465.851 500.891 461.381 502.913C455.458 498.007 461.48 490.217 466.173 486.954Z"/><path fill="#433CD8" d="M148.579 400.485C148.555 400.492 148.532 400.499 148.508 400.505C143.643 402.485 138.179 403.958 133.016 404.901L133.041 404.749C135.326 403.717 146.337 400.428 148.703 400.156L148.579 400.485Z"/><path fill="#6F5FF3" d="M11.1648 395.881C12.9566 396.698 14.2128 397.924 14.4924 399.945C10.875 400.227 10.752 399.175 11.1648 395.881Z"/></svg>