<svg xmlns="http://www.w3.org/2000/svg" xmlns:xlink="http://www.w3.org/1999/xlink"><symbol viewBox="0 0 24 24" fill="none" id="back" xmlns="http://www.w3.org/2000/svg"><path d="M16.19 2H7.81C4.17 2 2 4.17 2 7.81v8.37C2 19.83 4.17 22 7.81 22h8.37c3.64 0 5.81-2.17 5.81-5.81V7.81C22 4.17 19.83 2 16.19 2Zm-2.27 14.13H9c-.41 0-.75-.34-.75-.75s.34-.75.75-.75h4.92c1.28 0 2.33-1.04 2.33-2.33s-1.04-2.33-2.33-2.33H8.85l.26.26c.29.3.29.77-.01 1.07-.15.15-.34.22-.53.22s-.38-.07-.53-.22L6.47 9.72a.754.754 0 0 1 0-1.06l1.57-1.57c.29-.29.77-.29 1.06 0 .29.29.29.77 0 1.06l-.33.33h5.15c2.11 0 3.83 1.72 3.83 3.83 0 2.11-1.72 3.82-3.83 3.82Z" fill="currentColor"/></symbol><symbol viewBox="0 0 512 512" id="home" xmlns="http://www.w3.org/2000/svg"><path fill="currentColor" d="M261.56 101.28a8 8 0 0 0-11.06 0L66.4 277.15a8 8 0 0 0-2.47 5.79L63.9 448a32 32 0 0 0 32 32H192a16 16 0 0 0 16-16V328a8 8 0 0 1 8-8h80a8 8 0 0 1 8 8v136a16 16 0 0 0 16 16h96.06a32 32 0 0 0 32-32V282.94a8 8 0 0 0-2.47-5.79Z"/><path fill="currentColor" d="m490.91 244.15-74.8-71.56V64a16 16 0 0 0-16-16h-48a16 16 0 0 0-16 16v32l-57.92-55.38C272.77 35.14 264.71 32 256 32c-8.68 0-16.72 3.14-22.14 8.63l-212.7 203.5c-6.22 6-7 15.87-1.34 22.37A16 16 0 0 0 43 267.56L250.5 69.28a8 8 0 0 1 11.06 0l207.52 198.28a16 16 0 0 0 22.59-.44c6.14-6.36 5.63-16.86-.76-22.97"/></symbol></svg>